<?xml version="1.0" encoding="UTF-8" standalone="no"?>
<!DOCTYPE svg PUBLIC "-//W3C//DTD SVG 1.1//EN" "http://www.w3.org/Graphics/SVG/1.1/DTD/svg11.dtd" >
<svg xmlns="http://www.w3.org/2000/svg">
<metadata>
Generated by SVGconv.
Copyright   : Copyright (c) 2018 ParaType Inc., ParaType Ltd. All rights reserved.
Designer    : ParaType Ltd
Foundry     : ParaType Ltd
Foundry URL : http://www.paratype.com
</metadata>
<defs>
<font id="SBSansInterface-Light" horiz-adv-x="564" >
<font-face units-per-em="1000" ascent="950" descent="250" >
<font-face-src>
<font-face-name/>
</font-face-src>
</font-face>
<missing-glyph horiz-adv-x="500" />
<glyph unicode="&#13;" horiz-adv-x="250" />
<glyph unicode="&#32;" horiz-adv-x="250" />
<glyph unicode="&#33;" horiz-adv-x="330" d="M165 -5q-50 0 -50 50q0 50 50 50q50 0 50 -50q0 -50 -50 -50zt0 0zM133 700h64v-480l-64 0z" />
<glyph unicode="&#34;" horiz-adv-x="470" d="M103 700h60v-280h-60zM307 700h60v-280l-60 0z" />
<glyph unicode="&#35;" horiz-adv-x="600" d="M348 201h-149l-35 -201h-64l35 201h-105l11 58h104l32 182h-104l10 58h104l36 201h64l-36 -201h149l36 201h64l-36 -201h106l-10 -58h-106l-32 -182h106l-11 -58h-105l-35 -201h-64zM209 259h149l32 182l-149 0z" />
<glyph unicode="&#36;" horiz-adv-x="600" d="M278 -10q-58 2 -106.5 18q-48.5 16 -76.5 37l0 80q33 -29 83 -52q50 -23 112 -23q85 0 122 33.5q37 33.5 37 96.5q0 37 -15 62q-15 25 -39.5 42q-24.5 17 -56 29q-31.5 12 -64 23.5q-32.5 11.5 -64 25.5q-31.5 14 -56 36q-24.5 22 -39.5 53.5q-15 31.5 -15 78.5q0 78 42 124q42 46 136 54l0 92h54v-90q48 -2 87.5 -11.5q39.5 -9.5 65.5 -23.5l0 -80q-27 24 -72 39.5q-45 15.5 -93 15.5q-87 0 -120.5 -29.5q-33.5 -29.5 -33.5 -90.5q0 -49 26 -75.5q26 -26.5 64.5 -43q38.5 -16.5 84 -30q45.5 -13.5 84 -36q38.5 -22.5 64.5 -61q26 -38.5 26 -104.5q0 -82 -44.5 -130.5q-44.5 -48.5 -138.5 -57.5l0 -112l-54 0z" />
<glyph unicode="&#37;" horiz-adv-x="860" d="M636 700h64l-476 -700h-64zM235 375q-75 0 -117.5 43.5q-42.5 43.5 -42.5 121.5q0 78 42.5 121.5q42.5 43.5 117.5 43.5q75 0 117.5 -43.5q42.5 -43.5 42.5 -121.5q0 -78 -42.5 -121.5q-42.5 -43.5 -117.5 -43.5zt0 0zM235 427q51 0 77.5 28q26.5 28 26.5 85q0 57 -26.5 85q-26.5 28 -77.5 28q-51 0 -77.5 -28q-26.5 -28 -26.5 -85q0 -57 26.5 -85q26.5 -28 77.5 -28zt0 0zM625 -5q-75 0 -117.5 43.5q-42.5 43.5 -42.5 121.5q0 78 42.5 121.5q42.5 43.5 117.5 43.5q75 0 117.5 -43.5q42.5 -43.5 42.5 -121.5q0 -78 -42.5 -121.5q-42.5 -43.5 -117.5 -43.5zt0 0zM625 47q51 0 77.5 28q26.5 28 26.5 85q0 57 -26.5 85q-26.5 28 -77.5 28q-51 0 -77.5 -28q-26.5 -28 -26.5 -85q0 -57 26.5 -85t77.5 -28z" />
<glyph unicode="&#38;" horiz-adv-x="800" d="M301 -10q-110 0 -168 50.5q-58 50.5 -58 153.5q0 75 40 126.5q40 51.5 120 87.5q-25 45 -38.5 85.5q-13.5 40.5 -13.5 73.5q0 66 38 104.5q38 38.5 123 38.5q64 0 106 -33q42 -33 42 -100q0 -38 -12.5 -66q-12.5 -28 -36 -50.5q-23.5 -22.5 -56.5 -40q-33 -17.5 -73 -32.5q41 -62 96.5 -121q55.5 -59 118.5 -108q51 61 79.5 146q28.5 85 33.5 175l62 0q-6 -96 -38 -189.5q-32 -93.5 -89 -164.5q37 -25 70.5 -41.5q33.5 -16.5 67.5 -24.5l0 -70q-45 12 -89 35q-44 23 -91 56q-48 -44 -107 -67.5q-59 -23.5 -127 -23.5zt0 0zM308 51q48 0 93.5 16q45.5 16 85.5 50q-67 54 -125 117.5q-58 63.5 -101 130.5q-58 -26 -90.5 -64q-32.5 -38 -32.5 -100q0 -69 39 -109.5q39 -40.5 131 -40.5zt0 0zM337 654q-42 0 -68 -21q-26 -21 -26 -69q0 -29 12.5 -63q12.5 -34 33.5 -72q33 13 59 26q26 13 44.5 29q18.5 16 28.5 36.5q10 20.5 10 47.5q0 41 -21.5 63.5t-72.5 22.5z" />
<glyph unicode="&#39;" horiz-adv-x="270" d="M103 700h64v-280l-64 0z" />
<glyph unicode="&#40;" horiz-adv-x="380" d="M100 285q0 84 16.5 154q16.5 70 43 128.5q26.5 58.5 61 106q34.5 47.5 70.5 86.5l39 -30q-27 -36 -56 -78q-29 -42 -53 -95.5q-24 -53.5 -39.5 -120.5q-15.5 -67 -15.5 -152q0 -84 15.5 -150.5q15.5 -66.5 39.5 -120q24 -53.5 53 -95.5q29 -42 56 -78l-40 -30q-36 39 -70 86.5q-34 47.5 -60.5 106q-26.5 58.5 -43 128.5t-16.5 154z" />
<glyph unicode="&#41;" horiz-adv-x="380" d="M280 285q0 -84 -16.5 -154q-16.5 -70 -43 -128.5q-26.5 -58.5 -61 -106q-34.5 -47.5 -70.5 -86.5l-39 30q27 36 56 78q29 42 53 95.5q24 53.5 39.5 120.5q15.5 67 15.5 152q0 84 -15.5 150.5q-15.5 66.5 -39.5 120q-24 53.5 -53 95.5q-29 42 -56 78l40 30q36 -39 70 -86.5q34 -47.5 60.5 -106q26.5 -58.5 43 -128.5t16.5 -154z" />
<glyph unicode="&#42;" horiz-adv-x="500" d="M118 391l97 117l-143 41l19 60l138 -61l-11 152h63l-10 -152l137 61l20 -60l-144 -42l98 -116l-52 -36l-81 127l-80 -127z" />
<glyph unicode="&#43;" horiz-adv-x="600" d="M271 331h-171v58h171v171h58v-171h171v-58h-171v-171l-58 0z" />
<glyph unicode="&#44;" horiz-adv-x="320" d="M75 -110q42 17 64.5 46.5q22.5 29.5 24.5 58.5q-54 0 -54 50q0 50 50 50q55 0 55 -70q0 -59 -31 -106.5q-31 -47.5 -81 -68.5z" />
<glyph unicode="&#45;" horiz-adv-x="400" d="M50 299h300v-58l-300 0z" />
<glyph unicode="&#46;" horiz-adv-x="320" d="M160 -5q-50 0 -50 50q0 50 50 50q50 0 50 -50q0 -50 -50 -50z" />
<glyph unicode="&#47;" horiz-adv-x="400" d="M325 750h60l-310 -930l-60 0z" />
<glyph unicode="&#48;" horiz-adv-x="570" d="M285 -10q-55 0 -97.5 17.5q-42.5 17.5 -72 59q-29.5 41.5 -45 110.5q-15.5 69 -15.5 173q0 103 15.5 172q15.5 69 45 111q29.5 42 72.5 59.5q43 17.5 97 17.5q58 0 101 -16.5q43 -16.5 71.5 -57q28.5 -40.5 43 -110.5q14.5 -70 14.5 -176q0 -105 -15 -174.5q-15 -69.5 -44 -110.5q-29 -41 -72 -58q-43 -17 -99 -17zt0 0zM285 50q41 0 72 12.5q31 12.5 51.5 45.5q20.5 33 30.5 91.5q10 58.5 10 150.5q0 93 -10 151.5q-10 58.5 -30 91.5q-20 33 -51 45q-31 12 -73 12q-41 0 -71.5 -12.5q-30.5 -12.5 -51 -45.5q-20.5 -33 -31 -91.5q-10.5 -58.5 -10.5 -150.5q0 -90 11 -148q11 -58 32 -91.5q21 -33.5 51.5 -47t69.5 -13.5z" />
<glyph unicode="&#49;" horiz-adv-x="570" d="M90 58h199v566l-199 -131v64l218 143h45v-642h157v-58l-420 0z" />
<glyph unicode="&#50;" horiz-adv-x="570" d="M60 47q73 68 128.5 119q55.5 51 96 90.5q40.5 39.5 67.5 70q27 30.5 43.5 58q16.5 27.5 23.5 55q7 27.5 7 61.5q0 78 -41 113.5q-41 35.5 -124 35.5q-51 0 -97.5 -19.5q-46.5 -19.5 -83.5 -45.5l0 79q42 22 92.5 34q50.5 12 99.5 12q218 0 218 -202q0 -57 -17 -102.5q-17 -45.5 -56 -94.5q-39 -49 -103.5 -108.5q-64.5 -59.5 -160.5 -144.5l347 0v-58l-440 0z" />
<glyph unicode="&#51;" horiz-adv-x="570" d="M263 -10q-66 0 -121 12.5q-55 12.5 -87 31.5l0 82q31 -23 80.5 -43.5q49.5 -20.5 121.5 -20.5q55 0 90 10.5q35 10.5 55 30q20 19.5 28 47q8 27.5 8 60.5q0 64 -47 97q-47 33 -152 33h-73v58h71q88 0 132 36.5q44 36.5 44 100.5q0 67 -36 96.5q-36 29.5 -123 29.5q-35 0 -64 -5.5q-29 -5.5 -52.5 -14q-23.5 -8.5 -42 -18.5q-18.5 -10 -32.5 -19l0 73q33 17 86 30q53 13 117 13q113 0 161 -43.5q48 -43.5 48 -129.5q0 -75 -36.5 -115q-36.5 -40 -104.5 -55q82 -7 124 -49.5q42 -42.5 42 -124.5q0 -103 -61 -153t-176 -50z" />
<glyph unicode="&#52;" horiz-adv-x="570" d="M376 192h-341v45l331 463h74v-450h100v-58h-100v-192h-64zM376 250v373l-263 -373z" />
<glyph unicode="&#53;" horiz-adv-x="570" d="M80 97q36 -26 83 -36.5q47 -10.5 91 -10.5q103 0 148.5 41q45.5 41 45.5 127q0 41 -10 69.5q-10 28.5 -33 46.5q-23 18 -59.5 26q-36.5 8 -89.5 8q-50 0 -94 -3.5q-44 -3.5 -73 -8.5l26 344h373v-58h-322l-18 -219q18 2 53 3.5q35 1.5 79 1.5q122 0 176 -50.5q54 -50.5 54 -152.5q0 -54 -13 -97.5q-13 -43.5 -43 -74q-30 -30.5 -78 -47q-48 -16.5 -117 -16.5q-51 0 -99 9q-48 9 -80 24z" />
<glyph unicode="&#54;" horiz-adv-x="570" d="M300 -10q-126 0 -183 81q-57 81 -57 248q0 105 20 179q20 74 57 121.5q37 47.5 90 69q53 21.5 119 21.5q38 0 67.5 -5.5q29.5 -5.5 53.5 -16.5l0 -73q-23 14 -51 24q-28 10 -78 10q-48 0 -88.5 -16q-40.5 -16 -70 -52q-29.5 -36 -46 -93.5q-16.5 -57.5 -16.5 -139.5q0 -4 0.5 -13q0.5 -9 0.5 -20q26 64 76.5 98.5q50.5 34.5 127.5 34.5q97 0 147.5 -57q50.5 -57 50.5 -158q0 -64 -18 -110q-18 -46 -48.5 -75.5q-30.5 -29.5 -70.5 -43.5q-40 -14 -83 -14zt0 0zM131 265q1 -104 44.5 -159q43.5 -55 128.5 -55q33 0 61 10.5q28 10.5 48.5 31.5q20.5 21 32.5 53.5q12 32.5 12 76.5q0 90 -39 128.5q-39 38.5 -114 38.5q-41 0 -71 -12q-30 -12 -51 -31q-21 -19 -33.5 -41t-18.5 -41z" />
<glyph unicode="&#55;" horiz-adv-x="570" d="M437 642h-387v58h460v-46l-289 -654l-68 0z" />
<glyph unicode="&#56;" horiz-adv-x="570" d="M288 -10q-119 0 -176 53q-57 53 -57 148q0 31 5.5 60q5.5 29 21.5 52.5q16 23.5 43.5 41q27.5 17.5 71.5 26.5q-72 13 -98.5 54q-26.5 41 -26.5 108q0 82 52 129.5q52 47.5 163 47.5q111 0 158.5 -43q47.5 -43 47.5 -119q0 -33 -5 -61.5q-5 -28.5 -18.5 -51q-13.5 -22.5 -37 -38q-23.5 -15.5 -61.5 -24.5q42 -7 69.5 -22q27.5 -15 44 -38q16.5 -23 23.5 -53q7 -30 7 -66q0 -45 -13 -82.5q-13 -37.5 -40.5 -64.5q-27.5 -27 -70.5 -42q-43 -15 -103 -15zt0 0zM289 50q85 0 122.5 38q37.5 38 37.5 109q0 149 -161 146q-49 -1 -81 -12q-32 -11 -51 -29.5q-19 -18.5 -27 -45q-8 -26.5 -8 -57.5q0 -73 41.5 -111q41.5 -38 126.5 -38zt0 0zM285 650q-41 0 -69 -9q-28 -9 -45.5 -25.5q-17.5 -16.5 -25 -40.5q-7.5 -24 -7.5 -53q0 -30 8 -54.5q8 -24.5 26 -41.5q18 -17 47 -26q29 -9 70 -8q42 1 69 11.5q27 10.5 42.5 28.5q15.5 18 21 42q5.5 24 5.5 52q0 65 -32 94.5t-110 29.5z" />
<glyph unicode="&#57;" horiz-adv-x="570" d="M224 -10q-35 0 -66.5 6q-31.5 6 -55.5 17l0 74q23 -15 53.5 -25.5q30.5 -10.5 76.5 -10.5q48 0 88 16q40 16 69.5 52q29.5 36 46.5 93.5q17 57.5 17 140.5q0 7 -0.5 16q-0.5 9 -1.5 17q-23 -63 -73.5 -98q-50.5 -35 -127.5 -35q-97 0 -148.5 57q-51.5 57 -51.5 157q0 64 18 110q18 46 48.5 75.5q30.5 29.5 70.5 43.5q40 14 83 14q129 0 184.5 -82q55.5 -82 55.5 -253q0 -102 -20 -175q-20 -73 -57 -119.5q-37 -46.5 -90 -68.5q-53 -22 -119 -22zt0 0zM266 311q43 0 73.5 12.5q30.5 12.5 51.5 32q21 19.5 32.5 43.5q11.5 24 16.5 47q-2 93 -43.5 148q-41.5 55 -130.5 55q-33 0 -61.5 -10.5q-28.5 -10.5 -49 -31.5q-20.5 -21 -32.5 -53.5q-12 -32.5 -12 -76.5q0 -89 40.5 -127.5t114.5 -38.5z" />
<glyph unicode="&#58;" horiz-adv-x="330" d="M165 -5q-50 0 -50 50q0 50 50 50q50 0 50 -50q0 -50 -50 -50zt0 0zM165 405q-50 0 -50 50q0 50 50 50q50 0 50 -50q0 -50 -50 -50z" />
<glyph unicode="&#59;" horiz-adv-x="330" d="M80 -110q42 17 64.5 46.5q22.5 29.5 24.5 58.5q-54 0 -54 50q0 50 50 50q55 0 55 -70q0 -59 -31 -106.5q-31 -47.5 -81 -68.5zM165 405q-50 0 -50 50q0 50 50 50q50 0 50 -50q0 -50 -50 -50z" />
<glyph unicode="&#60;" horiz-adv-x="600" d="M100 337v46l400 197v-66l-320 -153l320 -153l0 -68z" />
<glyph unicode="&#61;" horiz-adv-x="600" d="M100 289h400v-58h-400zM100 489h400v-58l-400 0z" />
<glyph unicode="&#62;" horiz-adv-x="600" d="M500 383v-46l-400 -197v66l320 153l-320 153l0 68z" />
<glyph unicode="&#63;" horiz-adv-x="480" d="M195 -5q-50 0 -50 50q0 50 50 50q50 0 50 -50q0 -50 -50 -50zt0 0zM165 210q0 47 14.5 77.5q14.5 30.5 36.5 52.5q22 22 48 39q26 17 48 37q22 20 36.5 46.5q14.5 26.5 14.5 67.5q0 57 -35 88.5q-35 31.5 -116 31.5q-51 0 -88 -12q-37 -12 -69 -30l0 70q38 17 80 24.5q42 7.5 77 7.5q113 0 163 -46q50 -46 50 -134q0 -49 -15 -81q-15 -32 -37 -55q-22 -23 -48 -40.5q-26 -17.5 -48 -37q-22 -19.5 -37 -44.5q-15 -25 -15 -62z" />
<glyph unicode="&#64;" horiz-adv-x="900" d="M466 -130q-99 0 -174 29q-75 29 -125.5 82.5q-50.5 53.5 -76 130q-25.5 76.5 -25.5 172.5q0 93 25.5 169.5q25.5 76.5 75.5 131.5q50 55 124 85.5q74 30.5 170 30.5q88 0 158 -25.5q70 -25.5 118 -73q48 -47.5 73.5 -115.5q25.5 -68 25.5 -153q0 -73 -13.5 -124.5q-13.5 -51.5 -36.5 -84q-23 -32.5 -53.5 -47.5q-30.5 -15 -63.5 -15q-50 0 -73.5 22.5q-23.5 22.5 -28.5 81.5q-12 -50 -46.5 -77q-34.5 -27 -98.5 -27q-46 0 -77.5 14.5q-31.5 14.5 -51 42.5q-19.5 28 -28 70q-8.5 42 -8.5 98q0 59 13.5 101.5q13.5 42.5 37 70q23.5 27.5 56 40.5q32.5 13 70.5 13q33 0 55.5 -6.5q22.5 -6.5 37.5 -18.5q15 -12 24 -28.5q9 -16.5 14 -36.5l8 81h45v-316q0 -38 11 -56q11 -18 43 -18q21 0 42 11q21 11 37.5 36.5q16.5 25.5 26.5 67q10 41.5 10 103.5q0 152 -83.5 237q-83.5 85 -246.5 85q-167 0 -255 -95.5q-88 -95.5 -88 -275.5q0 -175 89.5 -270.5q89.5 -95.5 261.5 -95.5q51 0 97 11.5q46 11.5 75 30.5l0 -54q-28 -14 -74 -24.5q-46 -10.5 -97 -10.5zt0 0zM434 114q65 0 95 39q30 39 30 117v51q0 74 -30.5 107q-30.5 33 -86.5 33q-31 0 -54.5 -8.5q-23.5 -8.5 -40 -28.5q-16.5 -20 -25 -53q-8.5 -33 -8.5 -82q0 -44 5.5 -76.5q5.5 -32.5 19 -54.5q13.5 -22 37 -33t58.5 -11z" />
<glyph unicode="&#65;" horiz-adv-x="640" d="M288 700h64l263 -700h-70l-73 201h-308l-73 -201h-66zM185 259h266l-133 366z" />
<glyph unicode="&#66;" horiz-adv-x="625" d="M310 -5q-34 0 -69.5 1.5q-35.5 1.5 -64.5 3.5q-34 2 -66 5l0 690q33 2 66 5q29 2 63 3.5q34 1.5 66 1.5q66 0 110.5 -10.5q44.5 -10.5 71 -32.5q26.5 -22 37.5 -56.5q11 -34.5 11 -83.5q0 -63 -28 -102q-28 -39 -90 -56q74 -11 108.5 -52q34.5 -41 34.5 -114q0 -99 -58 -151q-58 -52 -192 -52zt0 0zM494 198q0 66 -38.5 99.5q-38.5 33.5 -135.5 33.5h-146v-271q17 -2 38 -3q18 -1 43 -1.5q25 -0.5 55 -0.5q53 0 88.5 8q35.5 8 56.5 25.5q21 17.5 30 44.5q9 27 9 65zt0 0zM469 522q0 34 -7 57.5q-7 23.5 -25.5 38q-18.5 14.5 -50.5 21q-32 6.5 -81 6.5q-29 0 -53 -0.5q-24 -0.5 -41 -1.5q-20 -1 -37 -1l0 -253h136q87 0 123 33t36 100z" />
<glyph unicode="&#67;" horiz-adv-x="575" d="M355 -10q-73 0 -129 20.5q-56 20.5 -94 64.5q-38 44 -57.5 113q-19.5 69 -19.5 167q0 93 20 160q20 67 57.5 110.5q37.5 43.5 92.5 64q55 20.5 125 20.5q38 0 67.5 -4q29.5 -4 51.5 -9q25 -5 45 -12l0 -70q-29 17 -70 26q-41 9 -94 9q-56 0 -98.5 -16q-42.5 -16 -71.5 -51.5q-29 -35.5 -44 -91.5q-15 -56 -15 -136q0 -83 15.5 -140.5q15.5 -57.5 45.5 -94.5q30 -37 73.5 -53.5q43.5 -16.5 99.5 -16.5q56 0 100 15.5q44 15.5 70 29.5l0 -70q-22 -10 -49 -18q-23 -7 -54.5 -12t-66.5 -5z" />
<glyph unicode="&#68;" horiz-adv-x="680" d="M290 -5q-34 0 -66 1.5q-32 1.5 -58 3.5q-30 2 -56 5l0 690q26 2 56 5q26 2 58 3.5q32 1.5 66 1.5q91 0 155 -18q64 -18 104 -59q40 -41 58 -107q18 -66 18 -161q0 -97 -20 -166q-20 -69 -61.5 -113.5q-41.5 -44.5 -104.5 -65q-63 -20.5 -149 -20.5zt0 0zM559 360q0 82 -13.5 137q-13.5 55 -44.5 88q-31 33 -83 46.5q-52 13.5 -128 13.5q-26 0 -47.5 -1q-21.5 -1 -36.5 -2q-18 -2 -32 -3l0 -578q14 -2 32 -3q30 -3 84 -3q71 0 122 16q51 16 83.5 52q32.5 36 48 94.5t15.5 142.5z" />
<glyph unicode="&#69;" horiz-adv-x="575" d="M110 700h405v-58h-341v-253h301v-58h-301v-273h341v-58l-405 0z" />
<glyph unicode="&#70;" horiz-adv-x="545" d="M110 701h385v-58h-321v-274h291v-58h-291v-311l-64 0z" />
<glyph unicode="&#71;" horiz-adv-x="650" d="M380 -10q-81 0 -142 21q-61 21 -101.5 65q-40.5 44 -61 113.5q-20.5 69.5 -20.5 165.5q0 181 83.5 268q83.5 87 241.5 87q35 0 64 -4q29 -4 49 -9q24 -5 42 -12l0 -70q-26 14 -66 24.5q-40 10.5 -89 10.5q-129 0 -194 -69.5q-65 -69.5 -65 -225.5q0 -83 15.5 -141q15.5 -58 48 -94.5q32.5 -36.5 81 -53q48.5 -16.5 114.5 -16.5q35 0 70 5q35 5 61 15l0 216h-151v58h215v-314q-26 -13 -78 -26.5t-117 -13.5z" />
<glyph unicode="&#72;" horiz-adv-x="720" d="M110 700h64v-311h372v311h64v-700h-64v331h-372v-331l-64 0z" />
<glyph unicode="&#73;" horiz-adv-x="330" d="M133 700h64v-700l-64 0z" />
<glyph unicode="&#74;" horiz-adv-x="420" d="M140 -10q-23 0 -41.5 3q-18.5 3 -31.5 7q-16 4 -27 10l0 70q11 -9 26 -15q13 -6 31 -10.5q18 -4.5 43 -4.5q48 0 72 26q24 26 24 84v540h64v-540q0 -88 -39.5 -129t-120.5 -41z" />
<glyph unicode="&#75;" horiz-adv-x="655" d="M254 331h-80v-331h-64v700h64v-311h80l269 311h82l-295 -339l315 -361l-84 0z" />
<glyph unicode="&#76;" horiz-adv-x="530" d="M110 700h64v-642h321v-58l-385 0z" />
<glyph unicode="&#77;" horiz-adv-x="850" d="M110 700h78l239 -450l239 450h74v-700h-64v490q0 19 0 33q0 14 0.5 27q0.5 13 1 27q0.5 14 2.5 33v0q-9 -19 -15 -32.5q-6 -13.5 -12.5 -26.5q-6.5 -13 -14.5 -27.5q-8 -14.5 -18 -33.5l-168 -315h-54l-168 315q-11 19 -18 33.5q-7 14.5 -13 27.5q-6 13 -12.5 26.5q-6.5 13.5 -14.5 32.5l-2 0q1 -19 2 -33q1 -14 1.5 -27q0.5 -13 0.5 -27q0 -14 0 -33v-490l-64 0z" />
<glyph unicode="&#78;" horiz-adv-x="740" d="M110 700h66l331 -500q12 -19 23 -37q11 -18 19 -32q10 -17 18 -31l2 0q-1 14 -2 31q-1 14 -1 32q0 18 0 37v500h64v-700h-66l-331 500q-30 45 -45 72q-9 15 -15 28l-2 0q0 -13 1 -28q1 -14 1.5 -31.5q0.5 -17.5 0.5 -40.5v-500l-64 0z" />
<glyph unicode="&#79;" horiz-adv-x="710" d="M355 -10q-71 0 -127 21q-56 21 -94.5 65q-38.5 44 -58.5 112q-20 68 -20 162q0 189 78 274.5q78 85.5 222 85.5q74 0 130 -20q56 -20 94 -63.5q38 -43.5 57 -112q19 -68.5 19 -164.5q0 -189 -78 -274.5q-78 -85.5 -222 -85.5zt0 0zM355 50q57 0 100.5 16.5q43.5 16.5 73 52.5q29.5 36 45 93q15.5 57 15.5 138q0 82 -15 139q-15 57 -45 93q-30 36 -73.5 52q-43.5 16 -100.5 16q-56 0 -99.5 -16.5q-43.5 -16.5 -73.5 -52.5q-30 -36 -45.5 -93q-15.5 -57 -15.5 -138q0 -80 16 -137q16 -57 46 -93q30 -36 73.5 -53t98.5 -17z" />
<glyph unicode="&#80;" horiz-adv-x="620" d="M110 695q27 2 57 5q26 2 59 3.5q33 1.5 69 1.5q74 0 125.5 -14q51.5 -14 83.5 -42.5q32 -28.5 46.5 -71.5q14.5 -43 14.5 -102q0 -118 -64.5 -179q-64.5 -61 -205.5 -61q-58 0 -89 3q-18 1 -32 3l0 -241h-64zM499 475q0 46 -10 78q-10 32 -33.5 52.5q-23.5 20.5 -63 30q-39.5 9.5 -97.5 9.5q-29 0 -51 -1q-22 -1 -38 -2q-18 -1 -32 -2l0 -339q14 -2 32 -3q31 -3 89 -3q111 0 157.5 43.5t46.5 136.5z" />
<glyph unicode="&#81;" horiz-adv-x="710" d="M355 -10q-71 0 -127 21q-56 21 -94.5 65q-38.5 44 -58.5 112q-20 68 -20 162q0 189 78 274.5q78 85.5 222 85.5q74 0 130 -20q56 -20 94 -63.5q38 -43.5 57 -112q19 -68.5 19 -164.5q0 -162 -57 -247.5q-57 -85.5 -164 -105.5l139 -157h-80l-131 150zM355 50q57 0 100.5 16.5q43.5 16.5 73 52.5q29.5 36 45 93q15.5 57 15.5 138q0 82 -15 139q-15 57 -45 93q-30 36 -73.5 52q-43.5 16 -100.5 16q-56 0 -99.5 -16.5q-43.5 -16.5 -73.5 -52.5q-30 -36 -45.5 -93q-15.5 -57 -15.5 -138q0 -80 16 -137q16 -57 46 -93q30 -36 73.5 -53t98.5 -17z" />
<glyph unicode="&#82;" horiz-adv-x="640" d="M340 289q-26 -3 -55 -3h-111v-286h-64v695q24 2 52 5q24 2 55.5 3.5q31.5 1.5 67.5 1.5q68 0 115.5 -13q47.5 -13 77.5 -39q30 -26 43.5 -65.5q13.5 -39.5 13.5 -92.5q0 -72 -31.5 -121q-31.5 -49 -98.5 -72l175 -302h-74zM469 495q0 40 -9 68.5q-9 28.5 -30 46.5q-21 18 -56.5 26.5q-35.5 8.5 -88.5 8.5q-21 0 -40.5 -0.5q-19.5 -0.5 -35.5 -1.5q-18 -1 -35 -1l0 -298h111q99 0 141.5 38.5t42.5 112.5z" />
<glyph unicode="&#83;" horiz-adv-x="580" d="M280 -10q-61 0 -113.5 16.5q-52.5 16.5 -81.5 38.5l0 80q33 -29 83 -52q50 -23 112 -23q85 0 122 33.5q37 33.5 37 96.5q0 37 -15 62q-15 25 -39.5 42q-24.5 17 -56 29q-31.5 12 -64 23.5q-32.5 11.5 -64 25.5q-31.5 14 -56 36q-24.5 22 -39.5 53.5q-15 31.5 -15 78.5q0 86 52 133q52 47 168 47q52 0 94.5 -10.5q42.5 -10.5 70.5 -24.5l0 -80q-27 24 -72 39.5q-45 15.5 -93 15.5q-87 0 -120.5 -29.5q-33.5 -29.5 -33.5 -90.5q0 -49 26 -75.5q26 -26.5 64.5 -43q38.5 -16.5 84 -30q45.5 -13.5 84 -36q38.5 -22.5 64.5 -61q26 -38.5 26 -104.5q0 -91 -54 -140.5t-171 -49.5z" />
<glyph unicode="&#84;" horiz-adv-x="580" d="M258 642h-218v58h500v-58h-218v-642l-64 0z" />
<glyph unicode="&#85;" horiz-adv-x="670" d="M335 -10q-128 0 -189 64q-61 64 -61 211v435h64v-435q0 -61 10.5 -102q10.5 -41 33 -66q22.5 -25 57.5 -36q35 -11 85 -11q51 0 86 10.5q35 10.5 57.5 35.5q22.5 25 32.5 66q10 41 10 103v435h64v-435q0 -147 -61 -211t-189 -64z" />
<glyph unicode="&#86;" horiz-adv-x="620" d="M25 700h70l222 -620l212 620h66l-245 -700l-70 0z" />
<glyph unicode="&#87;" horiz-adv-x="900" d="M35 700h66l119 -490q4 -19 7.5 -33q3.5 -14 6 -27q2.5 -13 5 -27q2.5 -14 6.5 -33l2 0q4 19 7 33q3 14 6 27q3 13 7 27q4 14 9 33l139 490h70l142 -490q6 -19 9.5 -33q3.5 -14 6.5 -27q3 -13 6 -27q3 -14 7 -33l2 0q3 19 5.5 33q2.5 14 5 27q2.5 13 5.5 27q3 14 8 33l119 490h64l-170 -700h-70l-145 500q-7 23 -12.5 44q-5.5 21 -9.5 38q-5 19 -9 38l-2 0q-4 -19 -8 -38q-4 -17 -9.5 -38q-5.5 -21 -12.5 -44l-142 -500l-70 0z" />
<glyph unicode="&#88;" horiz-adv-x="630" d="M30 0l248 360l-233 340h74l197 -287l197 287h72l-233 -338l248 -362h-74l-212 308l-212 -308z" />
<glyph unicode="&#89;" horiz-adv-x="610" d="M278 280l-253 420h72l214 -360l206 360h68l-243 -420v-280l-64 0z" />
<glyph unicode="&#90;" horiz-adv-x="590" d="M55 48l390 594h-380v58h460v-48l-390 -594h400v-58l-480 0z" />
<glyph unicode="&#91;" horiz-adv-x="380" d="M120 750h210v-56h-150v-818h150v-56l-210 0z" />
<glyph unicode="&#92;" horiz-adv-x="400" d="M15 750h64l306 -930l-64 0z" />
<glyph unicode="&#93;" horiz-adv-x="380" d="M50 -124h150v818h-150v56h210v-930l-210 0z" />
<glyph unicode="&#94;" horiz-adv-x="600" d="M268 700h64l188 -340h-66l-155 285l-155 -285l-64 0z" />
<glyph unicode="&#95;" horiz-adv-x="420" d="M0 -122h420v-58l-420 0z" />
<glyph unicode="&#96;" horiz-adv-x="300" d="M70 745h84l76 -130l-54 0z" />
<glyph unicode="&#97;" horiz-adv-x="535" d="M230 -10q-85 0 -127.5 41q-42.5 41 -42.5 114q0 38 10.5 67q10.5 29 35.5 48.5q25 19.5 65 29.5q40 10 99 10h120v55q0 32 -6.5 54q-6.5 22 -22.5 36q-16 14 -41.5 20.5q-25.5 6.5 -64.5 6.5q-47 0 -86.5 -13.5q-39.5 -13.5 -68.5 -33.5l0 68q26 15 70.5 26q44.5 11 89.5 11q102 0 146 -43q44 -43 44 -137v-350h-54l-6 95q-20 -44 -59 -74.5q-39 -30.5 -101 -30.5zt0 0zM235 48q72 0 113.5 42q41.5 42 41.5 120v40h-120q-43 0 -71.5 -6.5q-28.5 -6.5 -45.5 -19.5q-17 -13 -24 -32.5q-7 -19.5 -7 -46.5q0 -48 26.5 -72.5t86.5 -24.5z" />
<glyph unicode="&#98;" horiz-adv-x="590" d="M320 -10q-36 0 -64 8.5q-28 8.5 -48 22.5q-20 14 -34.5 33.5q-14.5 19.5 -23.5 40.5l-6 -95h-54v750h60v-320q12 20 27.5 38.5q15.5 18.5 36.5 32q21 13.5 49.5 21.5q28.5 8 66.5 8q48 0 85.5 -14q37.5 -14 63 -45.5q25.5 -31.5 38.5 -82q13 -50.5 13 -123.5q0 -75 -13.5 -127.5q-13.5 -52.5 -40.5 -85.5q-27 -33 -66 -47.5q-39 -14.5 -90 -14.5zt0 0zM310 48q40 0 69.5 10.5q29.5 10.5 49 36q19.5 25.5 29.5 67q10 41.5 10 103.5q0 58 -9.5 97.5q-9.5 39.5 -29 64q-19.5 24.5 -48 35q-28.5 10.5 -66.5 10.5q-80 0 -122.5 -43.5q-42.5 -43.5 -42.5 -130.5v-76q0 -83 44 -128.5t116 -45.5z" />
<glyph unicode="&#99;" horiz-adv-x="475" d="M305 -10q-122 0 -183.5 65.5q-61.5 65.5 -61.5 209.5q0 136 61 200.5q61 64.5 174 64.5q45 0 77.5 -7.5q32.5 -7.5 52.5 -16.5l0 -68q-22 14 -56 24q-34 10 -74 10q-83 0 -128 -49.5q-45 -49.5 -45 -157.5q0 -115 46.5 -166q46.5 -51 136.5 -51q36 0 72 11.5q36 11.5 58 28.5l0 -68q-20 -12 -51.5 -21t-78.5 -9z" />
<glyph unicode="&#100;" horiz-adv-x="590" d="M440 95q-9 -21 -23.5 -40.5q-14.5 -19.5 -34.5 -33.5q-20 -14 -48 -22.5q-28 -8.5 -64 -8.5q-51 0 -90 14.5q-39 14.5 -66 47.5q-27 33 -40.5 85.5q-13.5 52.5 -13.5 127.5q0 136 54 200.5q54 64.5 146 64.5q70 0 116.5 -28q46.5 -28 63.5 -77l0 325h60v-750h-54zM122 265q0 -61 10 -102.5q10 -41.5 30 -67q20 -25.5 50 -36.5q30 -11 69 -11q72 0 115.5 46q43.5 46 43.5 132v75q0 37 -9.5 68q-9.5 31 -30 54q-20.5 23 -51.5 36q-31 13 -74 13q-77 0 -115 -47t-38 -160z" />
<glyph unicode="&#101;" horiz-adv-x="550" d="M300 -10q-119 0 -179.5 64q-60.5 64 -60.5 206q0 139 59 204.5q59 65.5 161 65.5q52 0 91.5 -13.5q39.5 -13.5 66 -44q26.5 -30.5 39.5 -80q13 -49.5 13 -120.5v-27h-370q1 -101 44.5 -149q43.5 -48 135.5 -48q49 0 88.5 16q39.5 16 66.5 39l0 -68q-20 -14 -60 -29.5q-40 -15.5 -95 -15.5zt0 0zM280 472q-76 0 -117 -41.5q-41 -41.5 -43 -133.5l310 0q0 40 -7 72.5q-7 32.5 -24.5 55.5q-17.5 23 -46.5 35t-72 12z" />
<glyph unicode="&#102;" horiz-adv-x="400" d="M140 464h-100v56h100v85q0 78 35 114q35 36 110 36q24 0 43.5 -3q19.5 -3 31.5 -8l0 -68q-14 9 -34.5 15q-20.5 6 -45.5 6q-23 0 -38 -4.5q-15 -4.5 -24.5 -16q-9.5 -11.5 -13.5 -31q-4 -19.5 -4 -50.5v-75h160v-56h-160v-464l-60 0z" />
<glyph unicode="&#103;" horiz-adv-x="590" d="M280 -190q-63 0 -108 12q-45 12 -72 27l0 78q10 -10 27.5 -20.5q17.5 -10.5 40.5 -19q23 -8.5 50 -14q27 -5.5 57 -5.5q88 0 126.5 36q38.5 36 38.5 111v90q-9 -21 -23.5 -40.5q-14.5 -19.5 -34.5 -33.5q-20 -14 -48 -22.5q-28 -8.5 -64 -8.5q-51 0 -90 14.5q-39 14.5 -66 47q-27 32.5 -40.5 83.5q-13.5 51 -13.5 125q0 133 54 196.5q54 63.5 146 63.5q70 0 116.5 -28q46.5 -28 63.5 -77l6 95h54v-500q0 -106 -53.5 -158q-53.5 -52 -166.5 -52zt0 0zM281 58q36 0 65 12.5q29 12.5 50 35.5q21 23 32.5 56q11.5 33 11.5 74v71q0 34 -9.5 64.5q-9.5 30.5 -30 52.5q-20.5 22 -51.5 35q-31 13 -74 13q-77 0 -115 -46.5q-38 -46.5 -38 -155.5q0 -59 10 -99.5q10 -40.5 30 -65.5q20 -25 50 -36t69 -11z" />
<glyph unicode="&#104;" horiz-adv-x="585" d="M90 750h60v-325q23 48 61.5 76.5q38.5 28.5 108.5 28.5q92 0 136 -46.5q44 -46.5 44 -153.5v-330h-60v310q0 46 -7.5 77q-7.5 31 -24 50q-16.5 19 -42 27q-25.5 8 -61.5 8q-72 0 -113.5 -42q-41.5 -42 -41.5 -120v-310l-60 0z" />
<glyph unicode="&#105;" horiz-adv-x="290" d="M115 520h60v-520h-60zM145 638q-42 0 -42 42q0 42 42 42q42 0 42 -42q0 -42 -42 -42z" />
<glyph unicode="&#106;" horiz-adv-x="290" d="M46 -185q-48 0 -70 10l0 68q13 -8 30.5 -14q17.5 -6 39.5 -6q35 0 52 19.5q17 19.5 17 72.5v555h60v-555q0 -80 -32.5 -115q-32.5 -35 -96.5 -35zt0 0zM145 638q-42 0 -42 42q0 42 42 42q42 0 42 -42q0 -42 -42 -42z" />
<glyph unicode="&#107;" horiz-adv-x="555" d="M90 750h60v-452h70l192 222h76l-217 -249l239 -271h-78l-212 242h-70v-242l-60 0z" />
<glyph unicode="&#108;" horiz-adv-x="315" d="M205 -5q-62 0 -91 30q-29 30 -29 90v635h60v-625q0 -43 15 -57.5q15 -14.5 50 -14.5q19 0 36.5 5q17.5 5 28.5 10l0 -58q-11 -5 -29 -10t-41 -5z" />
<glyph unicode="&#109;" horiz-adv-x="835" d="M90 520h54l6 -90q20 49 56 74.5q36 25.5 94 25.5q63 0 97 -29.5q34 -29.5 42 -80.5q23 63 62 86.5q39 23.5 97 23.5q69 0 110.5 -46.5q41.5 -46.5 41.5 -143.5v-340h-60v320q0 83 -30 117.5q-30 34.5 -84 34.5q-57 0 -91.5 -38q-34.5 -38 -34.5 -114v-320h-60v320q0 83 -29.5 117.5q-29.5 34.5 -80.5 34.5q-60 0 -95 -38q-35 -38 -35 -114v-320l-60 0z" />
<glyph unicode="&#110;" horiz-adv-x="585" d="M90 520h54l6 -95q23 47 61.5 76q38.5 29 108.5 29q92 0 136 -46.5q44 -46.5 44 -153.5v-330h-60v310q0 46 -7.5 77q-7.5 31 -24 50q-16.5 19 -42 27q-25.5 8 -61.5 8q-72 0 -113.5 -42q-41.5 -42 -41.5 -120v-310l-60 0z" />
<glyph unicode="&#111;" horiz-adv-x="570" d="M285 -10q-109 0 -167 64q-58 64 -58 206q0 137 61 203.5q61 66.5 164 66.5q55 0 97.5 -15q42.5 -15 70.5 -47.5q28 -32.5 42.5 -84q14.5 -51.5 14.5 -123.5q0 -142 -59 -206q-59 -64 -166 -64zt0 0zM285 472q-78 0 -120.5 -48.5q-42.5 -48.5 -42.5 -163.5q0 -59 10 -99.5q10 -40.5 30.5 -65.5q20.5 -25 51 -36q30.5 -11 71.5 -11q41 0 71.5 11q30.5 11 51 36q20.5 25 30.5 65.5q10 40.5 10 99.5q0 59 -10 99.5q-10 40.5 -30.5 65.5q-20.5 25 -51 36t-71.5 11z" />
<glyph unicode="&#112;" horiz-adv-x="590" d="M90 520h54l6 -90q12 20 27.5 38.5q15.5 18.5 36.5 32q21 13.5 49.5 21.5q28.5 8 66.5 8q48 0 85.5 -14q37.5 -14 63 -45.5q25.5 -31.5 38.5 -82q13 -50.5 13 -123.5q0 -75 -13.5 -127.5q-13.5 -52.5 -40.5 -85.5q-27 -33 -66 -47.5q-39 -14.5 -90 -14.5q-36 0 -64 8.5q-28 8.5 -48 22.5q-20 14 -34.5 33.5q-14.5 19.5 -23.5 40.5l0 -275h-60zM468 265q0 58 -9.5 97.5q-9.5 39.5 -29 64q-19.5 24.5 -48 35q-28.5 10.5 -66.5 10.5q-80 0 -122.5 -43.5q-42.5 -43.5 -42.5 -130.5v-76q0 -83 44 -128.5q44 -45.5 116 -45.5q40 0 69.5 10.5q29.5 10.5 49 36q19.5 25.5 29.5 67t10 103.5z" />
<glyph unicode="&#113;" horiz-adv-x="590" d="M440 95q-9 -21 -23.5 -40.5q-14.5 -19.5 -34.5 -33.5q-20 -14 -48 -22.5q-28 -8.5 -64 -8.5q-51 0 -90 14.5q-39 14.5 -66 47.5q-27 33 -40.5 85.5q-13.5 52.5 -13.5 127.5q0 136 54 200.5q54 64.5 146 64.5q70 0 116.5 -28q46.5 -28 63.5 -77l6 95h54v-700h-60zM122 265q0 -61 10 -102.5q10 -41.5 30 -67q20 -25.5 50 -36.5q30 -11 69 -11q72 0 115.5 46q43.5 46 43.5 132v75q0 37 -9.5 68q-9.5 31 -30 54q-20.5 23 -51.5 36q-31 13 -74 13q-77 0 -115 -47t-38 -160z" />
<glyph unicode="&#114;" horiz-adv-x="410" d="M90 520h49l6 -95q20 57 58.5 81q38.5 24 92.5 24q15 0 30 -2q15 -2 24 -6l0 -68q-14 8 -31 13q-17 5 -42 5q-59 0 -93 -38.5q-34 -38.5 -34 -123.5v-310l-60 0z" />
<glyph unicode="&#115;" horiz-adv-x="475" d="M230 -10q-49 0 -84.5 8q-35.5 8 -65.5 22l0 78q61 -50 150 -50q60 0 86.5 23.5q26.5 23.5 26.5 68.5q0 36 -20 55q-20 19 -49.5 30q-29.5 11 -64.5 19q-35 8 -64.5 23q-29.5 15 -49.5 42q-20 27 -20 76q0 69 41.5 107q41.5 38 133.5 38q42 0 77 -8q35 -8 53 -16l0 -73q-26 18 -59 28.5q-33 10.5 -71 10.5q-63 0 -88 -21.5q-25 -21.5 -25 -60.5q0 -35 20 -52.5q20 -17.5 49.5 -27.5q29.5 -10 64.5 -18q35 -8 64.5 -23.5q29.5 -15.5 49.5 -44q20 -28.5 20 -79.5q0 -78 -41.5 -116.5t-133.5 -38.5z" />
<glyph unicode="&#116;" horiz-adv-x="435" d="M280 -5q-72 0 -106 35.5q-34 35.5 -34 114.5v319h-100v56h100v110l60 20v-130h180v-56h-180v-319q0 -52 18.5 -72q18.5 -20 61.5 -20q35 0 58.5 9.5q23.5 9.5 41.5 23.5l0 -68q-14 -10 -41 -16.5t-59 -6.5z" />
<glyph unicode="&#117;" horiz-adv-x="580" d="M490 0h-54l-6 95q-11 -22 -26 -41q-15 -19 -35.5 -33.5q-20.5 -14.5 -47 -22.5q-26.5 -8 -61.5 -8q-88 0 -131.5 46.5q-43.5 46.5 -43.5 153.5v330h60v-310q0 -46 7.5 -77q7.5 -31 23.5 -50q16 -19 40.5 -27q24.5 -8 58.5 -8q72 0 113.5 42q41.5 42 41.5 120v310l60 0z" />
<glyph unicode="&#118;" horiz-adv-x="520" d="M25 520h66l170 -445l170 445h64l-205 -520l-60 0z" />
<glyph unicode="&#119;" horiz-adv-x="760" d="M45 520h62l90 -360q4 -15 7.5 -29.5q3.5 -14.5 5.5 -25.5l5 -25h2q2 12 6 25q3 11 6.5 25.5q3.5 14.5 8.5 29.5l110 360h70l110 -360q5 -15 8 -29.5q3 -14.5 6 -25.5q3 -13 6 -25l2 0q1 12 4 25q3 24 11 55l90 360h60l-130 -520h-70l-113 370q-5 15 -8.5 29.5q-3.5 14.5 -6.5 25.5q-4 13 -6 25l-2 0q-2 -12 -6 -25q-3 -11 -6.5 -25.5q-3.5 -14.5 -8.5 -29.5l-113 -370l-70 0z" />
<glyph unicode="&#120;" horiz-adv-x="540" d="M236 270l-176 250h70l141 -201l141 201h68l-176 -249l191 -271h-70l-156 223l-156 -223l-68 0z" />
<glyph unicode="&#121;" horiz-adv-x="520" d="M150 -190q-32 0 -50 10l0 64q9 -7 21 -11.5q12 -4.5 29 -4.5q13 0 23.5 4q10.5 4 21.5 18q11 14 22.5 40q11.5 26 26.5 70l-219 520h66l183 -445l157 445h64l-194 -530q-22 -59 -40 -94.5q-18 -35.5 -35 -54.5q-17 -19 -35.5 -25t-40.5 -6z" />
<glyph unicode="&#122;" horiz-adv-x="490" d="M50 40l302 424h-292v56h370v-40l-302 -424h312v-56l-390 0z" />
<glyph unicode="&#123;" horiz-adv-x="380" d="M125 145q0 109 -80 113l0 54q42 2 61 32.5q19 30.5 19 81.5v175q0 29 6 56q6 27 21.5 47.5q15.5 20.5 42.5 33q27 12.5 69 12.5h61v-56h-57q-26 0 -42 -7.5q-16 -7.5 -25 -21q-9 -13.5 -12.5 -31q-3.5 -17.5 -3.5 -38.5v-172q0 -26 -2.5 -48q-2.5 -22 -11 -39.5q-8.5 -17.5 -24.5 -30.5q-16 -13 -42 -21q26 -6 42 -19.5q16 -13.5 24.5 -32.5q8.5 -19 11 -42.5q2.5 -23.5 2.5 -48.5v-168q0 -21 3.5 -38.5q3.5 -17.5 12.5 -31q9 -13.5 25 -21q16 -7.5 42 -7.5h57v-56h-61q-42 0 -69 12.5q-27 12.5 -42.5 33q-15.5 20.5 -21.5 47.5q-6 27 -6 56z" />
<glyph unicode="&#124;" horiz-adv-x="300" d="M120 750h60v-930l-60 0z" />
<glyph unicode="&#125;" horiz-adv-x="380" d="M255 425q0 -109 80 -113l0 -54q-42 -2 -61 -32.5q-19 -30.5 -19 -81.5v-175q0 -29 -6 -56q-6 -27 -21.5 -47.5q-15.5 -20.5 -42.5 -33q-27 -12.5 -69 -12.5h-61v56h57q25 0 41.5 7.5q16.5 7.5 25.5 21q9 13.5 12.5 31q3.5 17.5 3.5 38.5v172q0 26 2.5 48q2.5 22 11 39.5q8.5 17.5 24.5 30.5q16 13 42 21q-26 6 -42 19.5q-16 13.5 -24.5 32.5q-8.5 19 -11 42q-2.5 23 -2.5 49v168q0 21 -3.5 38.5q-3.5 17.5 -12.5 31q-9 13.5 -25.5 21q-16.5 7.5 -41.5 7.5h-57v56h61q42 0 69 -12.5q27 -12.5 42.5 -33q15.5 -20.5 21.5 -47.5q6 -27 6 -56z" />
<glyph unicode="&#126;" horiz-adv-x="600" d="M100 384q19 21 42.5 34q23.5 13 57.5 13q32 0 58 -12.5q26 -12.5 49.5 -27.5q23.5 -15 46 -27.5q22.5 -12.5 46.5 -12.5q34 0 57.5 18.5q23.5 18.5 42.5 38.5l0 -72q-19 -21 -42.5 -34q-23.5 -13 -57.5 -13q-32 0 -58 12.5q-26 12.5 -49.5 27.5q-23.5 15 -46 27.5q-22.5 12.5 -46.5 12.5q-34 0 -57.5 -18.5q-23.5 -18.5 -42.5 -38.5z" />
<glyph unicode="&#160;" horiz-adv-x="250" />
<glyph unicode="&#161;" horiz-adv-x="330" d="M165 525q50 0 50 -50q0 -50 -50 -50q-50 0 -50 50q0 50 50 50zt0 0zM197 -180h-64v480l64 0z" />
<glyph unicode="&#162;" horiz-adv-x="600" d="M315 -6q-100 14 -147.5 79q-47.5 65 -47.5 192q0 121 49 185q49 64 146 77l0 93h60v-90q27 -1 47 -4q20 -3 35.5 -7q15.5 -4 27 -9q11.5 -5 20.5 -9l0 -68q-22 14 -53.5 26.5q-31.5 12.5 -86.5 12.5q-91 0 -137 -49q-46 -49 -46 -158q0 -115 48 -166q48 -51 145 -51q51 0 84.5 14q33.5 14 55.5 31l0 -68q-10 -6 -21.5 -12q-11.5 -6 -27.5 -11.5q-16 -5.5 -38 -8.5q-22 -3 -53 -3l0 -110l-60 0z" />
<glyph unicode="&#163;" horiz-adv-x="600" d="M45 58h120v275h-120v54h120v90q0 30 6.5 70q6.5 40 29 76.5q22.5 36.5 66 61.5q43.5 25 117.5 25q51 0 86.5 -10q35.5 -10 54.5 -17l0 -63q-26 11 -58.5 21.5q-32.5 10.5 -84.5 10.5q-42 0 -71 -13.5q-29 -13.5 -47.5 -37.5q-18.5 -24 -26.5 -56q-8 -32 -8 -69v-89h191v-54h-191v-275h296v-58l-480 0z" />
<glyph unicode="&#164;" horiz-adv-x="600" d="M421 192q-26 -20 -56.5 -31q-30.5 -11 -65.5 -11q-35 0 -65.5 11q-30.5 11 -56.5 31l-66 -66l-36 36l66 66q-20 26 -31 56.5q-11 30.5 -11 65.5q0 35 11 65.5q11 30.5 31 56.5l-66 66l37 37l66 -66q25 19 55.5 30q30.5 11 65.5 11q35 0 65.5 -11q30.5 -11 56.5 -31l68 68l36 -36l-68 -68q20 -26 31 -56.5q11 -30.5 11 -65.5q0 -35 -11 -65.5q-11 -30.5 -30 -55.5l67 -67l-37 -37zM299 206q30 0 56 11.5q26 11.5 45.5 31q19.5 19.5 31 45.5q11.5 26 11.5 56q0 30 -11.5 56q-11.5 26 -31 45.5q-19.5 19.5 -45.5 31q-26 11.5 -56 11.5q-30 0 -56 -11.5q-26 -11.5 -45.5 -31q-19.5 -19.5 -31 -45.5q-11.5 -26 -11.5 -56q0 -30 11.5 -56q11.5 -26 31 -45.5q19.5 -19.5 45.5 -31t56 -11.5z" />
<glyph unicode="&#165;" horiz-adv-x="600" d="M95 326h146l-216 374h72l209 -368l201 368h68l-208 -374h148v-54h-178v-74h178v-54h-178v-144h-64v144h-178v54h178v74l-178 0z" />
<glyph unicode="&#166;" horiz-adv-x="300" d="M120 210h60v-390h-60zM120 750h60v-390l-60 0z" />
<glyph unicode="&#167;" horiz-adv-x="530" d="M243 -110q-37 0 -80 7.5q-43 7.5 -73 21.5l0 66q37 -20 74 -28.5q37 -8.5 75 -8.5q39 0 64 5.5q25 5.5 40 16q15 10.5 20.5 24.5q5.5 14 5.5 32q0 34 -35.5 60.5q-35.5 26.5 -92.5 52.5q-41 19 -73 35.5q-32 16.5 -53.5 35.5q-21.5 19 -33 43q-11.5 24 -11.5 57q0 42 27 77.5q27 35.5 73 67.5q-35 21 -55 48q-20 27 -20 64q0 37 14 64q14 27 39.5 44.5q25.5 17.5 60.5 26q35 8.5 78 8.5q46 0 82 -8q36 -8 56 -16l0 -66q-36 17 -69.5 24.5q-33.5 7.5 -72.5 7.5q-59 0 -90.5 -18.5q-31.5 -18.5 -31.5 -60.5q0 -16 6 -29q6 -13 19 -25q13 -12 34.5 -25q21.5 -13 51.5 -28q26 -13 59 -27.5q33 -14.5 61.5 -34q28.5 -19.5 48 -46.5q19.5 -27 19.5 -64q0 -38 -25.5 -77q-25.5 -39 -69.5 -74q33 -23 51.5 -49.5q18.5 -26.5 18.5 -62.5q0 -41 -15 -68q-15 -27 -41 -43q-26 -16 -61 -23q-35 -7 -75 -7zt0 0zM321 168q13 12 26 24.5q13 12.5 23.5 27q10.5 14.5 17 30.5q6.5 16 6.5 34q0 34 -21.5 58.5q-21.5 24.5 -69.5 47.5q-5 2 -16.5 7.5q-11.5 5.5 -24.5 11.5q-13 6 -25.5 12q-12.5 6 -19.5 10q-36 -24 -58.5 -50.5q-22.5 -26.5 -22.5 -58.5q0 -18 4 -32.5q4 -14.5 14.5 -27q10.5 -12.5 28.5 -24.5q18 -12 45 -26q5 -3 18 -9q13 -6 28 -12.5q15 -6.5 28 -13t19 -9.5z" />
<glyph unicode="&#168;" horiz-adv-x="410" d="M117 638q-42 0 -42 42q0 42 42 42q42 0 42 -42q0 -42 -42 -42zt0 0zM293 638q-42 0 -42 42q0 42 42 42q42 0 42 -42q0 -42 -42 -42z" />
<glyph unicode="&#169;" horiz-adv-x="830" d="M428 150q-98 0 -143 53.5q-45 53.5 -45 146.5q0 101 48.5 150.5q48.5 49.5 139.5 49.5q49 0 82 -11l0 -44q-18 7 -38.5 9q-20.5 2 -38.5 2q-139 0 -139 -156q0 -84 36.5 -120q36.5 -36 102.5 -36q18 0 38 3q20 3 39 11l0 -45q-17 -6 -37 -9.5q-20 -3.5 -45 -3.5zt0 0zM415 -10q-76 0 -142 27.5q-66 27.5 -114.5 76q-48.5 48.5 -76 114.5q-27.5 66 -27.5 142q0 76 27.5 142q27.5 66 76 114.5q48.5 48.5 114.5 76q66 27.5 142 27.5q76 0 142 -27.5q66 -27.5 114.5 -76q48.5 -48.5 76 -114.5q27.5 -66 27.5 -142q0 -76 -27.5 -142q-27.5 -66 -76 -114.5q-48.5 -48.5 -114.5 -76q-66 -27.5 -142 -27.5zt0 0zM415 42q65 0 121 23.5q56 23.5 97 65q41 41.5 64.5 97.5q23.5 56 23.5 122q0 66 -23.5 122q-23.5 56 -64.5 97.5q-41 41.5 -97 65q-56 23.5 -121 23.5q-65 0 -121 -23.5q-56 -23.5 -97 -65q-41 -41.5 -64.5 -97.5q-23.5 -56 -23.5 -122q0 -66 23.5 -122q23.5 -56 64.5 -97.5q41 -41.5 97 -65t121 -23.5z" />
<glyph unicode="&#170;" horiz-adv-x="370" d="M157 375q-112 0 -112 97q0 48 31.5 75q31.5 27 103.5 27h81v17q0 34 -18.5 50q-18.5 16 -67.5 16q-24 0 -51.5 -7.5q-27.5 -7.5 -48.5 -18.5l0 55q21 8 48 13.5q27 5.5 59 5.5q75 0 104 -30.5q29 -30.5 29 -92.5v-202h-46l-8 55q-13 -21 -37 -40.5q-24 -19.5 -67 -19.5zt0 0zM171 423q42 0 66 25q24 25 24 58v24h-73q-50 0 -68.5 -13q-18.5 -13 -18.5 -42q0 -52 70 -52z" />
<glyph unicode="&#171;" horiz-adv-x="550" d="M196 475h64l-135 -204l135 -206h-66l-134 204zM406 475h64l-135 -204l135 -206h-66l-134 204z" />
<glyph unicode="&#172;" horiz-adv-x="600" d="M442 331h-342v58h400v-189l-58 0z" />
<glyph unicode="&#173;" horiz-adv-x="400" d="M50 299h300v-58l-300 0z" />
<glyph unicode="&#174;" horiz-adv-x="600" d="M50 515q0 55 18 100.5q18 45.5 51 77.5q33 32 79 49.5q46 17.5 102 17.5q56 0 102 -17.5q46 -17.5 79 -49.5q33 -32 51 -77.5q18 -45.5 18 -100.5q0 -56 -18 -101q-18 -45 -51 -77q-33 -32 -79 -49.5q-46 -17.5 -102 -17.5q-56 0 -102 17.5q-46 17.5 -79 49.5q-33 32 -51 77q-18 45 -18 101zt0 0zM90 516q0 -47 15.5 -85.5q15.5 -38.5 43.5 -66q28 -27.5 66.5 -42.5q38.5 -15 84.5 -15q46 0 84.5 15q38.5 15 66.5 42.5q28 27.5 43.5 66q15.5 38.5 15.5 85.5q0 47 -15.5 85.5q-15.5 38.5 -43.5 65.5q-28 27 -66.5 42q-38.5 15 -84.5 15q-46 0 -84.5 -15q-38.5 -15 -66.5 -42q-28 -27 -43.5 -65.5q-15.5 -38.5 -15.5 -85.5zt0 0zM205 658h103q13 0 29 -2q16 -2 29.5 -10q13.5 -8 23 -24.5q9.5 -16.5 9.5 -45.5q0 -31 -15 -51q-15 -20 -35 -25l70 -113h-51l-64 106h-54v-106h-45zM304 531q19 0 34.5 9q15.5 9 15.5 36q0 28 -15 35.5q-15 7.5 -35 7.5h-54l0 -88z" />
<glyph unicode="&#175;" horiz-adv-x="320" d="M40 695h240v-50l-240 0z" />
<glyph unicode="&#176;" horiz-adv-x="400" d="M201 390q-33 0 -62.5 12.5q-29.5 12.5 -51.5 34.5q-22 22 -34.5 51q-12.5 29 -12.5 62q0 33 12.5 62q12.5 29 34.5 51q22 22 51.5 34.5q29.5 12.5 62.5 12.5q33 0 61.5 -12.5q28.5 -12.5 50.5 -34.5q22 -22 34.5 -51q12.5 -29 12.5 -62q0 -33 -12.5 -62q-12.5 -29 -34.5 -51q-22 -22 -50.5 -34.5q-28.5 -12.5 -61.5 -12.5zt0 0zM201 450q42 0 71 29q29 29 29 71q0 42 -29 71q-29 29 -71 29q-42 0 -71 -29q-29 -29 -29 -71q0 -42 29 -71t71 -29z" />
<glyph unicode="&#177;" horiz-adv-x="600" d="M271 406h-171v58h171v171h58v-171h171v-58h-171v-171h-58zM100 143h400v-58l-400 0z" />
<glyph unicode="&#178;" horiz-adv-x="450" d="M60 434l118 85q34 25 59.5 45q25.5 20 42.5 39q17 19 25.5 37q8.5 18 8.5 38q0 42 -29 59.5q-29 17.5 -76 17.5q-36 0 -70 -7q-34 -7 -59 -20l0 53q32 13 65.5 18.5q33.5 5.5 70.5 5.5q34 0 63 -6.5q29 -6.5 50.5 -20q21.5 -13.5 33.5 -36q12 -22.5 12 -53.5q0 -54 -40 -100q-40 -46 -123 -102l-80 -55v-1h248v-51l-320 0z" />
<glyph unicode="&#179;" horiz-adv-x="450" d="M129 619h73q109 0 109 68q0 38 -28 53q-28 15 -84 15q-35 0 -71 -5q-36 -5 -61 -16l0 51q29 12 70 16q41 4 79 4q76 0 114.5 -28q38.5 -28 38.5 -78q0 -44 -28.5 -65.5q-28.5 -21.5 -76.5 -32.5l0 -2q34 -5 56 -14.5q22 -9.5 35.5 -23q13.5 -13.5 19 -29.5q5.5 -16 5.5 -32q0 -35 -15.5 -59q-15.5 -24 -41 -38.5q-25.5 -14.5 -57.5 -21q-32 -6.5 -64 -6.5q-35 0 -72.5 3.5q-37.5 3.5 -69.5 16.5l0 52q27 -13 62.5 -17.5q35.5 -4.5 73.5 -4.5q68 0 96 21.5q28 21.5 28 53.5q0 42 -29 59q-29 17 -85 17l-77 0z" />
<glyph unicode="&#180;" horiz-adv-x="300" d="M148 745h82l-108 -130l-52 0z" />
<glyph unicode="&#181;" horiz-adv-x="585" d="M90 520h60v-310q0 -46 7.5 -77q7.5 -31 23.5 -50q16 -19 40.5 -27q24.5 -8 58.5 -8q72 0 113.5 42q41.5 42 41.5 120v310h60v-520h-54l-6 95q-11 -22 -26 -41q-15 -19 -35.5 -33.5q-20.5 -14.5 -47 -22.5q-26.5 -8 -61.5 -8q-77 0 -115 39l0 -209l-60 0z" />
<glyph unicode="&#182;" horiz-adv-x="570" d="M223 384q-41 0 -72 12q-31 12 -51 33q-20 21 -30 49q-10 28 -10 61q0 51 19 82.5q19 31.5 47 49q28 17.5 61 23.5q33 6 60 6h213v-880h-60v824h-117v-824l-60 0z" />
<glyph unicode="&#183;" horiz-adv-x="320" d="M160 305q-50 0 -50 50q0 50 50 50q50 0 50 -50q0 -50 -50 -50z" />
<glyph unicode="&#184;" horiz-adv-x="250" d="M110 -210q-23 0 -39.5 4.5q-16.5 4.5 -30.5 10.5l6 42q15 -7 28 -10q13 -3 31 -3q26 0 38.5 11.5q12.5 11.5 12.5 31.5q0 20 -13.5 31.5q-13.5 11.5 -42.5 11.5q-8 0 -17 -0.5q-9 -0.5 -14 -1.5l18 92h40l-12 -55q49 0 72 -21q23 -21 23 -57q0 -39 -25.5 -63t-74.5 -24z" />
<glyph unicode="&#185;" horiz-adv-x="450" d="M230 734l-126 -66l-24 45l164 87h46v-420l-60 0z" />
<glyph unicode="&#186;" horiz-adv-x="370" d="M185 375q-82 0 -116 43.5q-34 43.5 -34 121.5q0 78 34 121.5q34 43.5 116 43.5q82 0 116 -43.5q34 -43.5 34 -121.5q0 -78 -34 -121.5q-34 -43.5 -116 -43.5zt0 0zM185 423q47 0 70.5 26.5q23.5 26.5 23.5 90.5q0 64 -23.5 90.5q-23.5 26.5 -70.5 26.5q-47 0 -70.5 -26.5q-23.5 -26.5 -23.5 -90.5q0 -64 23.5 -90.5t70.5 -26.5z" />
<glyph unicode="&#187;" horiz-adv-x="550" d="M215 269l-135 206h66l134 -204l-136 -206h-64zM425 269l-135 206h66l134 -204l-136 -206l-64 0z" />
<glyph unicode="&#188;" horiz-adv-x="950" d="M676 700h64l-476 -700h-64zM211 634l-126 -66l-24 45l164 87h46v-420h-60zM496 145l259 274h71v-271h55v-49h-55v-100h-55v100h-275zM771 364h-1l-205 -216l206 0z" />
<glyph unicode="&#189;" horiz-adv-x="950" d="M646 700h64l-476 -700h-64zM207 634l-126 -66l-24 45l164 87h46v-420h-60zM561 53l118 85q34 25 59.5 45q25.5 20 42.5 39q17 19 25.5 37q8.5 18 8.5 38q0 42 -29 59.5q-29 17.5 -76 17.5q-36 0 -70 -7q-34 -7 -59 -20l0 53q32 13 65.5 18.5q33.5 5.5 70.5 5.5q34 0 63 -6.5q29 -6.5 50.5 -20q21.5 -13.5 33.5 -36q12 -22.5 12 -53.5q0 -54 -40 -100q-40 -46 -123 -102l-80 -55v-1h248v-51l-320 0z" />
<glyph unicode="&#190;" horiz-adv-x="950" d="M706 700h64l-476 -700h-64zM502 145l259 274h71v-271h55v-49h-55v-100h-55v100h-275zM777 364h-1l-205 -216h206zM128 519h73q109 0 109 68q0 38 -28 53q-28 15 -84 15q-35 0 -71 -5q-36 -5 -61 -16l0 51q29 12 70 16q41 4 79 4q76 0 114.5 -28q38.5 -28 38.5 -78q0 -44 -28.5 -65.5q-28.5 -21.5 -76.5 -32.5l0 -2q34 -5 56 -14.5q22 -9.5 35.5 -23q13.5 -13.5 19 -29.5q5.5 -16 5.5 -32q0 -35 -15.5 -59q-15.5 -24 -41 -38.5q-25.5 -14.5 -57.5 -21q-32 -6.5 -64 -6.5q-35 0 -72.5 3.5q-37.5 3.5 -69.5 16.5l0 52q27 -13 62.5 -17.5q35.5 -4.5 73.5 -4.5q68 0 96 21.5q28 21.5 28 53.5q0 42 -29 59q-29 17 -85 17l-77 0z" />
<glyph unicode="&#191;" horiz-adv-x="480" d="M285 525q50 0 50 -50q0 -50 -50 -50q-50 0 -50 50q0 50 50 50zt0 0zM315 310q0 -47 -14.5 -77.5q-14.5 -30.5 -36.5 -52.5q-22 -22 -48 -39q-26 -17 -48 -37q-22 -20 -36.5 -46.5q-14.5 -26.5 -14.5 -67.5q0 -57 35 -88.5q35 -31.5 116 -31.5q51 0 88 12q37 12 69 30l0 -70q-38 -17 -80 -24.5q-42 -7.5 -77 -7.5q-113 0 -163 45.5q-50 45.5 -50 134.5q0 48 15 80.5q15 32.5 37 55.5q22 23 48 40.5q26 17.5 48 37q22 19.5 37 44q15 24.5 15 62.5z" />
<glyph unicode="&#192;" horiz-adv-x="640" d="M288 700h64l263 -700h-70l-73 201h-308l-73 -201h-66zM185 259h266l-133 366zM175 905h86l84 -130l-56 0z" />
<glyph unicode="&#193;" horiz-adv-x="640" d="M288 700h64l263 -700h-70l-73 201h-308l-73 -201h-66zM185 259h266l-133 366zM374 905h84l-116 -130l-54 0z" />
<glyph unicode="&#194;" horiz-adv-x="640" d="M288 700h64l263 -700h-70l-73 201h-308l-73 -201h-66zM185 259h266l-133 366zM283 905h74l113 -130h-58l-93 88l-93 -88l-56 0z" />
<glyph unicode="&#195;" horiz-adv-x="640" d="M288 700h64l263 -700h-70l-73 201h-308l-73 -201h-66zM185 259h266l-133 366zM175 796q4 37 26.5 58.5q22.5 21.5 54.5 21.5q18 0 34 -5q16 -5 36 -14q18 -8 32 -15q14 -7 27 -7q13 0 24 7.5q11 7.5 16 31.5l40 -11q-5 -39 -28.5 -59q-23.5 -20 -50.5 -20q-15 0 -29 2.5q-14 2.5 -43 16.5q-17 8 -30 15q-13 7 -26 7q-13 0 -24.5 -7q-11.5 -7 -17.5 -33z" />
<glyph unicode="&#196;" horiz-adv-x="640" d="M288 700h64l263 -700h-70l-73 201h-308l-73 -201h-66zM185 259h266l-133 366zM224 796q-44 0 -44 44q0 44 44 44q44 0 44 -44q0 -44 -44 -44zt0 0zM416 796q-44 0 -44 44q0 44 44 44q44 0 44 -44q0 -44 -44 -44z" />
<glyph unicode="&#197;" horiz-adv-x="640" d="M288 700h64l263 -700h-70l-73 201h-308l-73 -201h-66zM185 259h266l-133 366zM228 840q0 40 26 66q26 26 66 26q40 0 66 -26q26 -26 26 -66q0 -40 -26 -66q-26 -26 -66 -26q-40 0 -66 26q-26 26 -26 66zt0 0zM268 840q0 -24 14 -38q14 -14 38 -14q24 0 38 14q14 14 14 38q0 24 -14 38q-14 14 -38 14q-24 0 -38 -14t-14 -38z" />
<glyph unicode="&#198;" horiz-adv-x="935" d="M470 200h-260l-116 -200h-69l409 700h441v-58h-341v-253h301v-58h-301v-273h341v-58h-405zM470 258v387l-226 -387z" />
<glyph unicode="&#199;" horiz-adv-x="575" d="M335 -210q-23 0 -42.5 4.5q-19.5 4.5 -32.5 10.5l6 44q29 -13 64 -13q29 0 41.5 10.5q12.5 10.5 12.5 30.5q0 20 -13 30.5q-13 10.5 -46 10.5q-11 0 -19 -0.5q-8 -0.5 -13 -1.5l14 77q-62 6 -109 30q-47 24 -78.5 68q-31.5 44 -48 109.5q-16.5 65.5 -16.5 154.5q0 93 20 160q20 67 57.5 110.5q37.5 43.5 92.5 64q55 20.5 125 20.5q38 0 67.5 -4q29.5 -4 51.5 -9q25 -5 45 -12l0 -70q-29 17 -70 26q-41 9 -94 9q-56 0 -98.5 -16q-42.5 -16 -71.5 -51.5q-29 -35.5 -44 -91.5q-15 -56 -15 -136q0 -83 15.5 -140.5q15.5 -57.5 45.5 -94.5q30 -37 73.5 -53.5q43.5 -16.5 99.5 -16.5q56 0 100 15.5q44 15.5 70 29.5l0 -70q-22 -10 -49 -18q-23 -7 -54.5 -12q-31.5 -5 -66.5 -5h-7l-7 -35q52 0 75.5 -21q23.5 -21 23.5 -57q0 -39 -26 -63t-79 -24z" />
<glyph unicode="&#200;" horiz-adv-x="575" d="M110 700h405v-58h-341v-253h301v-58h-301v-273h341v-58h-405zM175 905h86l84 -130l-56 0z" />
<glyph unicode="&#201;" horiz-adv-x="575" d="M110 700h405v-58h-341v-253h301v-58h-301v-273h341v-58h-405zM366 905h84l-116 -130l-54 0z" />
<glyph unicode="&#202;" horiz-adv-x="575" d="M110 700h405v-58h-341v-253h301v-58h-301v-273h341v-58h-405zM275 905h74l113 -130h-58l-93 88l-93 -88l-56 0z" />
<glyph unicode="&#203;" horiz-adv-x="575" d="M110 700h405v-58h-341v-253h301v-58h-301v-273h341v-58h-405zM216 796q-44 0 -44 44q0 44 44 44q44 0 44 -44q0 -44 -44 -44zt0 0zM408 796q-44 0 -44 44q0 44 44 44q44 0 44 -44q0 -44 -44 -44z" />
<glyph unicode="&#204;" horiz-adv-x="330" d="M133 700h64v-700h-64zM23 905h86l84 -130l-56 0z" />
<glyph unicode="&#205;" horiz-adv-x="330" d="M133 700h64v-700h-64zM224 905h84l-116 -130l-54 0z" />
<glyph unicode="&#206;" horiz-adv-x="330" d="M133 700h64v-700h-64zM128 905h74l113 -130h-58l-93 88l-93 -88l-56 0z" />
<glyph unicode="&#207;" horiz-adv-x="330" d="M133 700h64v-700h-64zM69 796q-44 0 -44 44q0 44 44 44q44 0 44 -44q0 -44 -44 -44zt0 0zM261 796q-44 0 -44 44q0 44 44 44q44 0 44 -44q0 -44 -44 -44z" />
<glyph unicode="&#208;" horiz-adv-x="690" d="M20 382h100v313q26 2 56 5q26 2 58 3.5q32 1.5 66 1.5q91 0 155 -18q64 -18 104 -59q40 -41 58 -107q18 -66 18 -161q0 -97 -20 -166q-20 -69 -61.5 -113.5q-41.5 -44.5 -104.5 -65q-63 -20.5 -149 -20.5q-34 0 -66 1.5q-32 1.5 -58 3.5q-30 2 -56 5l0 323h-100zM569 360q0 82 -13.5 137q-13.5 55 -44.5 88q-31 33 -83 46.5q-52 13.5 -128 13.5q-26 0 -47.5 -1q-21.5 -1 -36.5 -2q-18 -2 -32 -3l0 -257h186v-54h-186v-267q14 -2 32 -3q30 -3 84 -3q71 0 122 16q51 16 83.5 52q32.5 36 48 94.5t15.5 142.5z" />
<glyph unicode="&#209;" horiz-adv-x="740" d="M110 700h66l331 -500q12 -19 23 -37q11 -18 19 -32q10 -17 18 -31l2 0q-1 14 -2 31q-1 14 -1 32q0 18 0 37v500h64v-700h-66l-331 500q-30 45 -45 72q-9 15 -15 28l-2 0q0 -13 1 -28q1 -14 1.5 -31.5q0.5 -17.5 0.5 -40.5v-500h-64zM225 796q4 37 26.5 58.5q22.5 21.5 54.5 21.5q18 0 34 -5q16 -5 36 -14q18 -8 32 -15q14 -7 27 -7q13 0 24 7.5q11 7.5 16 31.5l40 -11q-5 -39 -28.5 -59q-23.5 -20 -50.5 -20q-15 0 -29 2.5q-14 2.5 -43 16.5q-17 8 -30 15q-13 7 -26 7q-13 0 -24.5 -7q-11.5 -7 -17.5 -33z" />
<glyph unicode="&#210;" horiz-adv-x="710" d="M355 -10q-71 0 -127 21q-56 21 -94.5 65q-38.5 44 -58.5 112q-20 68 -20 162q0 189 78 274.5q78 85.5 222 85.5q74 0 130 -20q56 -20 94 -63.5q38 -43.5 57 -112q19 -68.5 19 -164.5q0 -189 -78 -274.5q-78 -85.5 -222 -85.5zt0 0zM355 50q57 0 100.5 16.5q43.5 16.5 73 52.5q29.5 36 45 93q15.5 57 15.5 138q0 82 -15 139q-15 57 -45 93q-30 36 -73.5 52q-43.5 16 -100.5 16q-56 0 -99.5 -16.5q-43.5 -16.5 -73.5 -52.5q-30 -36 -45.5 -93q-15.5 -57 -15.5 -138q0 -80 16 -137q16 -57 46 -93q30 -36 73.5 -53q43.5 -17 98.5 -17zt0 0zM218 905h86l84 -130l-56 0z" />
<glyph unicode="&#211;" horiz-adv-x="710" d="M355 -10q-71 0 -127 21q-56 21 -94.5 65q-38.5 44 -58.5 112q-20 68 -20 162q0 189 78 274.5q78 85.5 222 85.5q74 0 130 -20q56 -20 94 -63.5q38 -43.5 57 -112q19 -68.5 19 -164.5q0 -189 -78 -274.5q-78 -85.5 -222 -85.5zt0 0zM355 50q57 0 100.5 16.5q43.5 16.5 73 52.5q29.5 36 45 93q15.5 57 15.5 138q0 82 -15 139q-15 57 -45 93q-30 36 -73.5 52q-43.5 16 -100.5 16q-56 0 -99.5 -16.5q-43.5 -16.5 -73.5 -52.5q-30 -36 -45.5 -93q-15.5 -57 -15.5 -138q0 -80 16 -137q16 -57 46 -93q30 -36 73.5 -53q43.5 -17 98.5 -17zt0 0zM409 905h84l-116 -130l-54 0z" />
<glyph unicode="&#212;" horiz-adv-x="710" d="M355 -10q-71 0 -127 21q-56 21 -94.5 65q-38.5 44 -58.5 112q-20 68 -20 162q0 189 78 274.5q78 85.5 222 85.5q74 0 130 -20q56 -20 94 -63.5q38 -43.5 57 -112q19 -68.5 19 -164.5q0 -189 -78 -274.5q-78 -85.5 -222 -85.5zt0 0zM355 50q57 0 100.5 16.5q43.5 16.5 73 52.5q29.5 36 45 93q15.5 57 15.5 138q0 82 -15 139q-15 57 -45 93q-30 36 -73.5 52q-43.5 16 -100.5 16q-56 0 -99.5 -16.5q-43.5 -16.5 -73.5 -52.5q-30 -36 -45.5 -93q-15.5 -57 -15.5 -138q0 -80 16 -137q16 -57 46 -93q30 -36 73.5 -53q43.5 -17 98.5 -17zt0 0zM318 905h74l113 -130h-58l-93 88l-93 -88l-56 0z" />
<glyph unicode="&#213;" horiz-adv-x="710" d="M355 -10q-71 0 -127 21q-56 21 -94.5 65q-38.5 44 -58.5 112q-20 68 -20 162q0 189 78 274.5q78 85.5 222 85.5q74 0 130 -20q56 -20 94 -63.5q38 -43.5 57 -112q19 -68.5 19 -164.5q0 -189 -78 -274.5q-78 -85.5 -222 -85.5zt0 0zM355 50q57 0 100.5 16.5q43.5 16.5 73 52.5q29.5 36 45 93q15.5 57 15.5 138q0 82 -15 139q-15 57 -45 93q-30 36 -73.5 52q-43.5 16 -100.5 16q-56 0 -99.5 -16.5q-43.5 -16.5 -73.5 -52.5q-30 -36 -45.5 -93q-15.5 -57 -15.5 -138q0 -80 16 -137q16 -57 46 -93q30 -36 73.5 -53q43.5 -17 98.5 -17zt0 0zM210 796q4 37 26.5 58.5q22.5 21.5 54.5 21.5q18 0 34 -5q16 -5 36 -14q18 -8 32 -15q14 -7 27 -7q13 0 24 7.5q11 7.5 16 31.5l40 -11q-5 -39 -28.5 -59q-23.5 -20 -50.5 -20q-15 0 -29 2.5q-14 2.5 -43 16.5q-17 8 -30 15q-13 7 -26 7q-13 0 -24.5 -7q-11.5 -7 -17.5 -33z" />
<glyph unicode="&#214;" horiz-adv-x="710" d="M355 -10q-71 0 -127 21q-56 21 -94.5 65q-38.5 44 -58.5 112q-20 68 -20 162q0 189 78 274.5q78 85.5 222 85.5q74 0 130 -20q56 -20 94 -63.5q38 -43.5 57 -112q19 -68.5 19 -164.5q0 -189 -78 -274.5q-78 -85.5 -222 -85.5zt0 0zM355 50q57 0 100.5 16.5q43.5 16.5 73 52.5q29.5 36 45 93q15.5 57 15.5 138q0 82 -15 139q-15 57 -45 93q-30 36 -73.5 52q-43.5 16 -100.5 16q-56 0 -99.5 -16.5q-43.5 -16.5 -73.5 -52.5q-30 -36 -45.5 -93q-15.5 -57 -15.5 -138q0 -80 16 -137q16 -57 46 -93q30 -36 73.5 -53q43.5 -17 98.5 -17zt0 0zM259 796q-44 0 -44 44q0 44 44 44q44 0 44 -44q0 -44 -44 -44zt0 0zM451 796q-44 0 -44 44q0 44 44 44q44 0 44 -44q0 -44 -44 -44z" />
<glyph unicode="&#215;" horiz-adv-x="600" d="M125 225l135 135l-135 135l40 40l135 -135l135 135l40 -40l-135 -135l135 -135l-40 -40l-135 135l-135 -135z" />
<glyph unicode="&#216;" horiz-adv-x="710" d="M355 -10q-119 0 -192 58l-58 -78l-40 30l62 84q-35 45 -53.5 110q-18.5 65 -18.5 156q0 189 78 274.5q78 85.5 222 85.5q122 0 194 -56l56 76l40 -30l-60 -81q35 -44 52.5 -110q17.5 -66 17.5 -159q0 -189 -78 -274.5q-78 -85.5 -222 -85.5zt0 0zM355 50q57 0 100.5 16.5q43.5 16.5 73 52.5q29.5 36 45 93q15.5 57 15.5 138q0 72 -11.5 124q-11.5 52 -34.5 88l-342 -462q57 -50 154 -50zt0 0zM121 350q0 -137 47 -210l342 461q-29 26 -68 37.5q-39 11.5 -87 11.5q-56 0 -99.5 -16.5q-43.5 -16.5 -73.5 -52.5q-30 -36 -45.5 -93t-15.5 -138z" />
<glyph unicode="&#217;" horiz-adv-x="670" d="M335 -10q-128 0 -189 64q-61 64 -61 211v435h64v-435q0 -61 10.5 -102q10.5 -41 33 -66q22.5 -25 57.5 -36q35 -11 85 -11q51 0 86 10.5q35 10.5 57.5 35.5q22.5 25 32.5 66q10 41 10 103v435h64v-435q0 -147 -61 -211q-61 -64 -189 -64zt0 0zM198 905h86l84 -130l-56 0z" />
<glyph unicode="&#218;" horiz-adv-x="670" d="M335 -10q-128 0 -189 64q-61 64 -61 211v435h64v-435q0 -61 10.5 -102q10.5 -41 33 -66q22.5 -25 57.5 -36q35 -11 85 -11q51 0 86 10.5q35 10.5 57.5 35.5q22.5 25 32.5 66q10 41 10 103v435h64v-435q0 -147 -61 -211q-61 -64 -189 -64zt0 0zM389 905h84l-116 -130l-54 0z" />
<glyph unicode="&#219;" horiz-adv-x="670" d="M335 -10q-128 0 -189 64q-61 64 -61 211v435h64v-435q0 -61 10.5 -102q10.5 -41 33 -66q22.5 -25 57.5 -36q35 -11 85 -11q51 0 86 10.5q35 10.5 57.5 35.5q22.5 25 32.5 66q10 41 10 103v435h64v-435q0 -147 -61 -211q-61 -64 -189 -64zt0 0zM298 905h74l113 -130h-58l-93 88l-93 -88l-56 0z" />
<glyph unicode="&#220;" horiz-adv-x="670" d="M335 -10q-128 0 -189 64q-61 64 -61 211v435h64v-435q0 -61 10.5 -102q10.5 -41 33 -66q22.5 -25 57.5 -36q35 -11 85 -11q51 0 86 10.5q35 10.5 57.5 35.5q22.5 25 32.5 66q10 41 10 103v435h64v-435q0 -147 -61 -211q-61 -64 -189 -64zt0 0zM239 796q-44 0 -44 44q0 44 44 44q44 0 44 -44q0 -44 -44 -44zt0 0zM431 796q-44 0 -44 44q0 44 44 44q44 0 44 -44q0 -44 -44 -44z" />
<glyph unicode="&#221;" horiz-adv-x="610" d="M278 280l-253 420h72l214 -360l206 360h68l-243 -420v-280h-64zM359 905h84l-116 -130l-54 0z" />
<glyph unicode="&#222;" horiz-adv-x="620" d="M110 700h64v-114q26 2 57 3q31 1 64 1q74 0 125.5 -14q51.5 -14 83.5 -42.5q32 -28.5 46.5 -71.5q14.5 -43 14.5 -102q0 -118 -64.5 -179q-64.5 -61 -205.5 -61q-58 0 -89 3q-18 1 -32 3l0 -126h-64zM499 360q0 46 -10 78q-10 32 -33.5 52.5q-23.5 20.5 -63 30q-39.5 9.5 -97.5 9.5q-29 0 -51 -1q-22 -1 -38 -2q-18 -1 -32 -2l0 -339q14 -2 32 -3q31 -3 89 -3q111 0 157.5 43.5t46.5 136.5z" />
<glyph unicode="&#223;" horiz-adv-x="615" d="M90 520q0 117 55.5 178.5q55.5 61.5 164.5 61.5q102 0 153.5 -49.5q51.5 -49.5 51.5 -139.5q0 -60 -26 -102q-26 -42 -79 -62l0 -3q38 -4 64.5 -20q26.5 -16 43.5 -40.5q17 -24.5 24.5 -57.5q7.5 -33 7.5 -72q0 -116 -53.5 -170q-53.5 -54 -166.5 -54q-34 0 -59.5 4.5q-25.5 4.5 -41.5 9.5l0 56q16 -5 40 -9.5q24 -4.5 61 -4.5q81 0 119.5 39.5q38.5 39.5 38.5 128.5q0 81 -37 119.5q-37 38.5 -111 38.5h-75v56h65q55 0 89 36.5q34 36.5 34 106.5q0 63 -36.5 98q-36.5 35 -106.5 35q-83 0 -121.5 -45q-38.5 -45 -38.5 -139v-520l-60 0z" />
<glyph unicode="&#224;" horiz-adv-x="535" d="M230 -10q-85 0 -127.5 41q-42.5 41 -42.5 114q0 38 10.5 67q10.5 29 35.5 48.5q25 19.5 65 29.5q40 10 99 10h120v55q0 32 -6.5 54q-6.5 22 -22.5 36q-16 14 -41.5 20.5q-25.5 6.5 -64.5 6.5q-47 0 -86.5 -13.5q-39.5 -13.5 -68.5 -33.5l0 68q26 15 70.5 26q44.5 11 89.5 11q102 0 146 -43q44 -43 44 -137v-350h-54l-6 95q-20 -44 -59 -74.5q-39 -30.5 -101 -30.5zt0 0zM235 48q72 0 113.5 42q41.5 42 41.5 120v40h-120q-43 0 -71.5 -6.5q-28.5 -6.5 -45.5 -19.5q-17 -13 -24 -32.5q-7 -19.5 -7 -46.5q0 -48 26.5 -72.5q26.5 -24.5 86.5 -24.5zt0 0zM147 745h84l76 -130l-54 0z" />
<glyph unicode="&#225;" horiz-adv-x="535" d="M230 -10q-85 0 -127.5 41q-42.5 41 -42.5 114q0 38 10.5 67q10.5 29 35.5 48.5q25 19.5 65 29.5q40 10 99 10h120v55q0 32 -6.5 54q-6.5 22 -22.5 36q-16 14 -41.5 20.5q-25.5 6.5 -64.5 6.5q-47 0 -86.5 -13.5q-39.5 -13.5 -68.5 -33.5l0 68q26 15 70.5 26q44.5 11 89.5 11q102 0 146 -43q44 -43 44 -137v-350h-54l-6 95q-20 -44 -59 -74.5q-39 -30.5 -101 -30.5zt0 0zM235 48q72 0 113.5 42q41.5 42 41.5 120v40h-120q-43 0 -71.5 -6.5q-28.5 -6.5 -45.5 -19.5q-17 -13 -24 -32.5q-7 -19.5 -7 -46.5q0 -48 26.5 -72.5q26.5 -24.5 86.5 -24.5zt0 0zM322 745h82l-108 -130l-52 0z" />
<glyph unicode="&#226;" horiz-adv-x="535" d="M230 -10q-85 0 -127.5 41q-42.5 41 -42.5 114q0 38 10.5 67q10.5 29 35.5 48.5q25 19.5 65 29.5q40 10 99 10h120v55q0 32 -6.5 54q-6.5 22 -22.5 36q-16 14 -41.5 20.5q-25.5 6.5 -64.5 6.5q-47 0 -86.5 -13.5q-39.5 -13.5 -68.5 -33.5l0 68q26 15 70.5 26q44.5 11 89.5 11q102 0 146 -43q44 -43 44 -137v-350h-54l-6 95q-20 -44 -59 -74.5q-39 -30.5 -101 -30.5zt0 0zM235 48q72 0 113.5 42q41.5 42 41.5 120v40h-120q-43 0 -71.5 -6.5q-28.5 -6.5 -45.5 -19.5q-17 -13 -24 -32.5q-7 -19.5 -7 -46.5q0 -48 26.5 -72.5q26.5 -24.5 86.5 -24.5zt0 0zM240 745h70l110 -130h-56l-89 90l-91 -90l-54 0z" />
<glyph unicode="&#227;" horiz-adv-x="535" d="M230 -10q-85 0 -127.5 41q-42.5 41 -42.5 114q0 38 10.5 67q10.5 29 35.5 48.5q25 19.5 65 29.5q40 10 99 10h120v55q0 32 -6.5 54q-6.5 22 -22.5 36q-16 14 -41.5 20.5q-25.5 6.5 -64.5 6.5q-47 0 -86.5 -13.5q-39.5 -13.5 -68.5 -33.5l0 68q26 15 70.5 26q44.5 11 89.5 11q102 0 146 -43q44 -43 44 -137v-350h-54l-6 95q-20 -44 -59 -74.5q-39 -30.5 -101 -30.5zt0 0zM235 48q72 0 113.5 42q41.5 42 41.5 120v40h-120q-43 0 -71.5 -6.5q-28.5 -6.5 -45.5 -19.5q-17 -13 -24 -32.5q-7 -19.5 -7 -46.5q0 -48 26.5 -72.5q26.5 -24.5 86.5 -24.5zt0 0zM127 636q4 37 24 58.5q20 21.5 52 21.5q18 0 34 -5q16 -5 36 -14q18 -8 31.5 -15q13.5 -7 27.5 -7q13 0 21.5 7.5q8.5 7.5 13.5 31.5l40 -11q-5 -39 -26 -59q-21 -20 -48 -20q-15 0 -29 2.5q-14 2.5 -43 16.5q-17 8 -29.5 15q-12.5 7 -26.5 7q-13 0 -22 -7q-9 -7 -15 -33z" />
<glyph unicode="&#228;" horiz-adv-x="535" d="M230 -10q-85 0 -127.5 41q-42.5 41 -42.5 114q0 38 10.5 67q10.5 29 35.5 48.5q25 19.5 65 29.5q40 10 99 10h120v55q0 32 -6.5 54q-6.5 22 -22.5 36q-16 14 -41.5 20.5q-25.5 6.5 -64.5 6.5q-47 0 -86.5 -13.5q-39.5 -13.5 -68.5 -33.5l0 68q26 15 70.5 26q44.5 11 89.5 11q102 0 146 -43q44 -43 44 -137v-350h-54l-6 95q-20 -44 -59 -74.5q-39 -30.5 -101 -30.5zt0 0zM235 48q72 0 113.5 42q41.5 42 41.5 120v40h-120q-43 0 -71.5 -6.5q-28.5 -6.5 -45.5 -19.5q-17 -13 -24 -32.5q-7 -19.5 -7 -46.5q0 -48 26.5 -72.5q26.5 -24.5 86.5 -24.5zt0 0zM187 638q-42 0 -42 42q0 42 42 42q42 0 42 -42q0 -42 -42 -42zt0 0zM363 638q-42 0 -42 42q0 42 42 42q42 0 42 -42q0 -42 -42 -42z" />
<glyph unicode="&#229;" horiz-adv-x="535" d="M230 -10q-85 0 -127.5 41q-42.5 41 -42.5 114q0 38 10.5 67q10.5 29 35.5 48.5q25 19.5 65 29.5q40 10 99 10h120v55q0 32 -6.5 54q-6.5 22 -22.5 36q-16 14 -41.5 20.5q-25.5 6.5 -64.5 6.5q-47 0 -86.5 -13.5q-39.5 -13.5 -68.5 -33.5l0 68q26 15 70.5 26q44.5 11 89.5 11q102 0 146 -43q44 -43 44 -137v-350h-54l-6 95q-20 -44 -59 -74.5q-39 -30.5 -101 -30.5zt0 0zM235 48q72 0 113.5 42q41.5 42 41.5 120v40h-120q-43 0 -71.5 -6.5q-28.5 -6.5 -45.5 -19.5q-17 -13 -24 -32.5q-7 -19.5 -7 -46.5q0 -48 26.5 -72.5q26.5 -24.5 86.5 -24.5zt0 0zM185 680q0 40 25 65q25 25 65 25q40 0 65 -25q25 -25 25 -65q0 -40 -25 -65q-25 -25 -65 -25q-40 0 -65 25q-25 25 -25 65zt0 0zM225 680q0 -23 13.5 -36.5q13.5 -13.5 36.5 -13.5q23 0 36.5 13.5q13.5 13.5 13.5 36.5q0 23 -13.5 36.5q-13.5 13.5 -36.5 13.5q-23 0 -36.5 -13.5t-13.5 -36.5z" />
<glyph unicode="&#230;" horiz-adv-x="860" d="M620 -10q-74 0 -124.5 29q-50.5 29 -76.5 92q-26 -62 -75 -91.5q-49 -29.5 -114 -29.5q-85 0 -127.5 41q-42.5 41 -42.5 114q0 38 10.5 67q10.5 29 35.5 48.5q25 19.5 65 29.5q40 10 99 10h120v55q0 32 -6.5 54q-6.5 22 -22.5 36q-16 14 -41.5 20.5q-25.5 6.5 -64.5 6.5q-47 0 -86.5 -13.5q-39.5 -13.5 -68.5 -33.5l0 68q26 15 70.5 26q44.5 11 89.5 11q72 0 114 -22.5q42 -22.5 59 -71.5q27 48 70 71q43 23 97 23q49 0 86 -13.5q37 -13.5 62.5 -44q25.5 -30.5 38.5 -80q13 -49.5 13 -120.5v-27h-350q1 -101 43 -149q42 -48 127 -48q89 0 145 45l0 -68q-20 -14 -57 -24.5q-37 -10.5 -88 -10.5zt0 0zM235 48q72 0 113.5 42q41.5 42 41.5 120v40h-120q-43 0 -71.5 -6.5q-28.5 -6.5 -45.5 -19.5q-17 -13 -24 -32.5q-7 -19.5 -7 -46.5q0 -48 26.5 -72.5q26.5 -24.5 86.5 -24.5zt0 0zM600 472q-69 0 -108.5 -41.5q-39.5 -41.5 -41.5 -133.5l290 0q0 40 -7 72.5q-7 32.5 -23.5 55.5q-16.5 23 -43 35t-66.5 12z" />
<glyph unicode="&#231;" horiz-adv-x="475" d="M280 -210q-23 0 -39.5 4.5q-16.5 4.5 -30.5 10.5l6 42q15 -7 28 -10q13 -3 31 -3q26 0 38.5 11.5q12.5 11.5 12.5 31.5q0 20 -13.5 31.5q-13.5 11.5 -42.5 11.5q-8 0 -17 -0.5q-9 -0.5 -14 -1.5l14 75q-97 13 -145 78q-48 65 -48 194q0 136 61 200.5q61 64.5 174 64.5q45 0 77.5 -7.5q32.5 -7.5 52.5 -16.5l0 -68q-22 14 -56 24q-34 10 -74 10q-83 0 -128 -49.5q-45 -49.5 -45 -157.5q0 -115 46.5 -166q46.5 -51 136.5 -51q36 0 72 11.5q36 11.5 58 28.5l0 -68q-20 -12 -51.5 -21q-31.5 -9 -78.5 -9h-13l-7 -35q49 0 72 -21q23 -21 23 -57q0 -39 -25.5 -63t-74.5 -24z" />
<glyph unicode="&#232;" horiz-adv-x="550" d="M300 -10q-119 0 -179.5 64q-60.5 64 -60.5 206q0 139 59 204.5q59 65.5 161 65.5q52 0 91.5 -13.5q39.5 -13.5 66 -44q26.5 -30.5 39.5 -80q13 -49.5 13 -120.5v-27h-370q1 -101 44.5 -149q43.5 -48 135.5 -48q49 0 88.5 16q39.5 16 66.5 39l0 -68q-20 -14 -60 -29.5q-40 -15.5 -95 -15.5zt0 0zM280 472q-76 0 -117 -41.5q-41 -41.5 -43 -133.5l310 0q0 40 -7 72.5q-7 32.5 -24.5 55.5q-17.5 23 -46.5 35q-29 12 -72 12zt0 0zM152 745h84l76 -130l-54 0z" />
<glyph unicode="&#233;" horiz-adv-x="550" d="M300 -10q-119 0 -179.5 64q-60.5 64 -60.5 206q0 139 59 204.5q59 65.5 161 65.5q52 0 91.5 -13.5q39.5 -13.5 66 -44q26.5 -30.5 39.5 -80q13 -49.5 13 -120.5v-27h-370q1 -101 44.5 -149q43.5 -48 135.5 -48q49 0 88.5 16q39.5 16 66.5 39l0 -68q-20 -14 -60 -29.5q-40 -15.5 -95 -15.5zt0 0zM280 472q-76 0 -117 -41.5q-41 -41.5 -43 -133.5l310 0q0 40 -7 72.5q-7 32.5 -24.5 55.5q-17.5 23 -46.5 35q-29 12 -72 12zt0 0zM327 745h82l-108 -130l-52 0z" />
<glyph unicode="&#234;" horiz-adv-x="550" d="M300 -10q-119 0 -179.5 64q-60.5 64 -60.5 206q0 139 59 204.5q59 65.5 161 65.5q52 0 91.5 -13.5q39.5 -13.5 66 -44q26.5 -30.5 39.5 -80q13 -49.5 13 -120.5v-27h-370q1 -101 44.5 -149q43.5 -48 135.5 -48q49 0 88.5 16q39.5 16 66.5 39l0 -68q-20 -14 -60 -29.5q-40 -15.5 -95 -15.5zt0 0zM280 472q-76 0 -117 -41.5q-41 -41.5 -43 -133.5l310 0q0 40 -7 72.5q-7 32.5 -24.5 55.5q-17.5 23 -46.5 35q-29 12 -72 12zt0 0zM245 745h70l110 -130h-56l-89 90l-91 -90l-54 0z" />
<glyph unicode="&#235;" horiz-adv-x="550" d="M300 -10q-119 0 -179.5 64q-60.5 64 -60.5 206q0 139 59 204.5q59 65.5 161 65.5q52 0 91.5 -13.5q39.5 -13.5 66 -44q26.5 -30.5 39.5 -80q13 -49.5 13 -120.5v-27h-370q1 -101 44.5 -149q43.5 -48 135.5 -48q49 0 88.5 16q39.5 16 66.5 39l0 -68q-20 -14 -60 -29.5q-40 -15.5 -95 -15.5zt0 0zM280 472q-76 0 -117 -41.5q-41 -41.5 -43 -133.5l310 0q0 40 -7 72.5q-7 32.5 -24.5 55.5q-17.5 23 -46.5 35q-29 12 -72 12zt0 0zM192 638q-42 0 -42 42q0 42 42 42q42 0 42 -42q0 -42 -42 -42zt0 0zM368 638q-42 0 -42 42q0 42 42 42q42 0 42 -42q0 -42 -42 -42z" />
<glyph unicode="&#236;" horiz-adv-x="290" d="M115 520h60v-520h-60zM12 745h84l76 -130l-54 0z" />
<glyph unicode="&#237;" horiz-adv-x="290" d="M115 520h60v-520h-60zM197 745h82l-108 -130l-52 0z" />
<glyph unicode="&#238;" horiz-adv-x="290" d="M115 520h60v-520h-60zM110 745h70l110 -130h-56l-89 90l-91 -90l-54 0z" />
<glyph unicode="&#239;" horiz-adv-x="290" d="M115 520h60v-520h-60zM57 638q-42 0 -42 42q0 42 42 42q42 0 42 -42q0 -42 -42 -42zt0 0zM233 638q-42 0 -42 42q0 42 42 42q42 0 42 -42q0 -42 -42 -42z" />
<glyph unicode="&#240;" horiz-adv-x="585" d="M174 614l89 48q-57 35 -128 50l24 46q46 -12 85 -29q39 -17 72 -38l130 70l19 -37l-111 -60q45 -36 76.5 -81q31.5 -45 51.5 -96q20 -51 29 -107.5q9 -56.5 9 -116.5q0 -129 -60.5 -201q-60.5 -72 -169.5 -72q-111 0 -170.5 67.5q-59.5 67.5 -59.5 195.5q0 127 59.5 192q59.5 65 159.5 65q18 0 38 -2.5q20 -2.5 40.5 -10.5q20.5 -8 40 -23q19.5 -15 34.5 -40l3 2q-17 62 -51 112.5q-34 50.5 -82 87.5l-109 -59zM290 46q37 0 67.5 11.5q30.5 11.5 53 36q22.5 24.5 35 63.5q12.5 39 12.5 95q0 108 -41.5 155q-41.5 47 -126.5 47q-38 0 -69 -11q-31 -11 -53 -35q-22 -24 -34 -62.5q-12 -38.5 -12 -93.5q0 -56 12.5 -95.5q12.5 -39.5 35 -64q22.5 -24.5 53.5 -35.5t67 -11z" />
<glyph unicode="&#241;" horiz-adv-x="585" d="M90 520h54l6 -95q23 47 61.5 76q38.5 29 108.5 29q92 0 136 -46.5q44 -46.5 44 -153.5v-330h-60v310q0 46 -7.5 77q-7.5 31 -24 50q-16.5 19 -42 27q-25.5 8 -61.5 8q-72 0 -113.5 -42q-41.5 -42 -41.5 -120v-310h-60zM152 636q4 37 24 58.5q20 21.5 52 21.5q18 0 34 -5q16 -5 36 -14q18 -8 31.5 -15q13.5 -7 27.5 -7q13 0 21.5 7.5q8.5 7.5 13.5 31.5l40 -11q-5 -39 -26 -59q-21 -20 -48 -20q-15 0 -29 2.5q-14 2.5 -43 16.5q-17 8 -29.5 15q-12.5 7 -26.5 7q-13 0 -22 -7q-9 -7 -15 -33z" />
<glyph unicode="&#242;" horiz-adv-x="570" d="M285 -10q-109 0 -167 64q-58 64 -58 206q0 137 61 203.5q61 66.5 164 66.5q55 0 97.5 -15q42.5 -15 70.5 -47.5q28 -32.5 42.5 -84q14.5 -51.5 14.5 -123.5q0 -142 -59 -206q-59 -64 -166 -64zt0 0zM285 472q-78 0 -120.5 -48.5q-42.5 -48.5 -42.5 -163.5q0 -59 10 -99.5q10 -40.5 30.5 -65.5q20.5 -25 51 -36q30.5 -11 71.5 -11q41 0 71.5 11q30.5 11 51 36q20.5 25 30.5 65.5q10 40.5 10 99.5q0 59 -10 99.5q-10 40.5 -30.5 65.5q-20.5 25 -51 36q-30.5 11 -71.5 11zt0 0zM157 745h84l76 -130l-54 0z" />
<glyph unicode="&#243;" horiz-adv-x="570" d="M285 -10q-109 0 -167 64q-58 64 -58 206q0 137 61 203.5q61 66.5 164 66.5q55 0 97.5 -15q42.5 -15 70.5 -47.5q28 -32.5 42.5 -84q14.5 -51.5 14.5 -123.5q0 -142 -59 -206q-59 -64 -166 -64zt0 0zM285 472q-78 0 -120.5 -48.5q-42.5 -48.5 -42.5 -163.5q0 -59 10 -99.5q10 -40.5 30.5 -65.5q20.5 -25 51 -36q30.5 -11 71.5 -11q41 0 71.5 11q30.5 11 51 36q20.5 25 30.5 65.5q10 40.5 10 99.5q0 59 -10 99.5q-10 40.5 -30.5 65.5q-20.5 25 -51 36q-30.5 11 -71.5 11zt0 0zM332 745h82l-108 -130l-52 0z" />
<glyph unicode="&#244;" horiz-adv-x="570" d="M285 -10q-109 0 -167 64q-58 64 -58 206q0 137 61 203.5q61 66.5 164 66.5q55 0 97.5 -15q42.5 -15 70.5 -47.5q28 -32.5 42.5 -84q14.5 -51.5 14.5 -123.5q0 -142 -59 -206q-59 -64 -166 -64zt0 0zM285 472q-78 0 -120.5 -48.5q-42.5 -48.5 -42.5 -163.5q0 -59 10 -99.5q10 -40.5 30.5 -65.5q20.5 -25 51 -36q30.5 -11 71.5 -11q41 0 71.5 11q30.5 11 51 36q20.5 25 30.5 65.5q10 40.5 10 99.5q0 59 -10 99.5q-10 40.5 -30.5 65.5q-20.5 25 -51 36q-30.5 11 -71.5 11zt0 0zM250 745h70l110 -130h-56l-89 90l-91 -90l-54 0z" />
<glyph unicode="&#245;" horiz-adv-x="570" d="M285 -10q-109 0 -167 64q-58 64 -58 206q0 137 61 203.5q61 66.5 164 66.5q55 0 97.5 -15q42.5 -15 70.5 -47.5q28 -32.5 42.5 -84q14.5 -51.5 14.5 -123.5q0 -142 -59 -206q-59 -64 -166 -64zt0 0zM285 472q-78 0 -120.5 -48.5q-42.5 -48.5 -42.5 -163.5q0 -59 10 -99.5q10 -40.5 30.5 -65.5q20.5 -25 51 -36q30.5 -11 71.5 -11q41 0 71.5 11q30.5 11 51 36q20.5 25 30.5 65.5q10 40.5 10 99.5q0 59 -10 99.5q-10 40.5 -30.5 65.5q-20.5 25 -51 36q-30.5 11 -71.5 11zt0 0zM145 636q4 37 24 58.5q20 21.5 52 21.5q18 0 34 -5q16 -5 36 -14q18 -8 31.5 -15q13.5 -7 27.5 -7q13 0 21.5 7.5q8.5 7.5 13.5 31.5l40 -11q-5 -39 -26 -59q-21 -20 -48 -20q-15 0 -29 2.5q-14 2.5 -43 16.5q-17 8 -29.5 15q-12.5 7 -26.5 7q-13 0 -22 -7q-9 -7 -15 -33z" />
<glyph unicode="&#246;" horiz-adv-x="570" d="M285 -10q-109 0 -167 64q-58 64 -58 206q0 137 61 203.5q61 66.5 164 66.5q55 0 97.5 -15q42.5 -15 70.5 -47.5q28 -32.5 42.5 -84q14.5 -51.5 14.5 -123.5q0 -142 -59 -206q-59 -64 -166 -64zt0 0zM285 472q-78 0 -120.5 -48.5q-42.5 -48.5 -42.5 -163.5q0 -59 10 -99.5q10 -40.5 30.5 -65.5q20.5 -25 51 -36q30.5 -11 71.5 -11q41 0 71.5 11q30.5 11 51 36q20.5 25 30.5 65.5q10 40.5 10 99.5q0 59 -10 99.5q-10 40.5 -30.5 65.5q-20.5 25 -51 36q-30.5 11 -71.5 11zt0 0zM197 638q-42 0 -42 42q0 42 42 42q42 0 42 -42q0 -42 -42 -42zt0 0zM373 638q-42 0 -42 42q0 42 42 42q42 0 42 -42q0 -42 -42 -42z" />
<glyph unicode="&#247;" horiz-adv-x="600" d="M100 389h400v-58h-400zM300 140q-50 0 -50 50q0 50 50 50q50 0 50 -50q0 -50 -50 -50zt0 0zM300 480q-50 0 -50 50q0 50 50 50q50 0 50 -50q0 -50 -50 -50z" />
<glyph unicode="&#248;" horiz-adv-x="570" d="M285 -10q-43 0 -78.5 9.5q-35.5 9.5 -62.5 29.5l-39 -54l-35 25l43 60q-26 33 -39.5 82q-13.5 49 -13.5 118q0 137 61 203.5q61 66.5 164 66.5q89 0 141 -39l39 54l35 -25l-43 -59q53 -65 53 -201q0 -142 -59 -206q-59 -64 -166 -64zt0 0zM448 260q0 50 -7.5 86q-7.5 36 -21.5 62l-240 -330q20 -16 46.5 -23q26.5 -7 59.5 -7q41 0 71.5 11q30.5 11 51 36q20.5 25 30.5 65.5q10 40.5 10 99.5zt0 0zM285 472q-78 0 -120.5 -48.5q-42.5 -48.5 -42.5 -163.5q0 -98 29 -148l239 330q-37 30 -105 30z" />
<glyph unicode="&#249;" horiz-adv-x="580" d="M490 0h-54l-6 95q-11 -22 -26 -41q-15 -19 -35.5 -33.5q-20.5 -14.5 -47 -22.5q-26.5 -8 -61.5 -8q-88 0 -131.5 46.5q-43.5 46.5 -43.5 153.5v330h60v-310q0 -46 7.5 -77q7.5 -31 23.5 -50q16 -19 40.5 -27q24.5 -8 58.5 -8q72 0 113.5 42q41.5 42 41.5 120v310h60zM159 745h84l76 -130l-54 0z" />
<glyph unicode="&#250;" horiz-adv-x="580" d="M490 0h-54l-6 95q-11 -22 -26 -41q-15 -19 -35.5 -33.5q-20.5 -14.5 -47 -22.5q-26.5 -8 -61.5 -8q-88 0 -131.5 46.5q-43.5 46.5 -43.5 153.5v330h60v-310q0 -46 7.5 -77q7.5 -31 23.5 -50q16 -19 40.5 -27q24.5 -8 58.5 -8q72 0 113.5 42q41.5 42 41.5 120v310h60zM334 745h82l-108 -130l-52 0z" />
<glyph unicode="&#251;" horiz-adv-x="580" d="M490 0h-54l-6 95q-11 -22 -26 -41q-15 -19 -35.5 -33.5q-20.5 -14.5 -47 -22.5q-26.5 -8 -61.5 -8q-88 0 -131.5 46.5q-43.5 46.5 -43.5 153.5v330h60v-310q0 -46 7.5 -77q7.5 -31 23.5 -50q16 -19 40.5 -27q24.5 -8 58.5 -8q72 0 113.5 42q41.5 42 41.5 120v310h60zM252 745h70l110 -130h-56l-89 90l-91 -90l-54 0z" />
<glyph unicode="&#252;" horiz-adv-x="580" d="M490 0h-54l-6 95q-11 -22 -26 -41q-15 -19 -35.5 -33.5q-20.5 -14.5 -47 -22.5q-26.5 -8 -61.5 -8q-88 0 -131.5 46.5q-43.5 46.5 -43.5 153.5v330h60v-310q0 -46 7.5 -77q7.5 -31 23.5 -50q16 -19 40.5 -27q24.5 -8 58.5 -8q72 0 113.5 42q41.5 42 41.5 120v310h60zM199 638q-42 0 -42 42q0 42 42 42q42 0 42 -42q0 -42 -42 -42zt0 0zM375 638q-42 0 -42 42q0 42 42 42q42 0 42 -42q0 -42 -42 -42z" />
<glyph unicode="&#253;" horiz-adv-x="520" d="M150 -190q-32 0 -50 10l0 64q9 -7 21 -11.5q12 -4.5 29 -4.5q13 0 23.5 4q10.5 4 21.5 18q11 14 22.5 40q11.5 26 26.5 70l-219 520h66l183 -445l157 445h64l-194 -530q-22 -59 -40 -94.5q-18 -35.5 -35 -54.5q-17 -19 -35.5 -25q-18.5 -6 -40.5 -6zt0 0zM307 745h82l-108 -130l-52 0z" />
<glyph unicode="&#254;" horiz-adv-x="590" d="M90 750h60v-320q12 20 27.5 38.5q15.5 18.5 36.5 32q21 13.5 49.5 21.5q28.5 8 66.5 8q48 0 85.5 -14q37.5 -14 63 -45.5q25.5 -31.5 38.5 -82q13 -50.5 13 -123.5q0 -75 -13.5 -127.5q-13.5 -52.5 -40.5 -85.5q-27 -33 -66 -47.5q-39 -14.5 -90 -14.5q-36 0 -64 8.5q-28 8.5 -48 22.5q-20 14 -34.5 33.5q-14.5 19.5 -23.5 40.5l0 -275h-60zM468 265q0 58 -9.5 97.5q-9.5 39.5 -29 64q-19.5 24.5 -48 35q-28.5 10.5 -66.5 10.5q-80 0 -122.5 -43.5q-42.5 -43.5 -42.5 -130.5v-76q0 -83 44 -128.5q44 -45.5 116 -45.5q40 0 69.5 10.5q29.5 10.5 49 36q19.5 25.5 29.5 67t10 103.5z" />
<glyph unicode="&#255;" horiz-adv-x="520" d="M150 -190q-32 0 -50 10l0 64q9 -7 21 -11.5q12 -4.5 29 -4.5q13 0 23.5 4q10.5 4 21.5 18q11 14 22.5 40q11.5 26 26.5 70l-219 520h66l183 -445l157 445h64l-194 -530q-22 -59 -40 -94.5q-18 -35.5 -35 -54.5q-17 -19 -35.5 -25q-18.5 -6 -40.5 -6zt0 0zM172 638q-42 0 -42 42q0 42 42 42q42 0 42 -42q0 -42 -42 -42zt0 0zM348 638q-42 0 -42 42q0 42 42 42q42 0 42 -42q0 -42 -42 -42z" />
<glyph unicode="&#256;" horiz-adv-x="640" d="M288 700h64l263 -700h-70l-73 201h-308l-73 -201h-66zM185 259h266l-133 366zM190 857h260v-54l-260 0z" />
<glyph unicode="&#257;" horiz-adv-x="535" d="M230 -10q-85 0 -127.5 41q-42.5 41 -42.5 114q0 38 10.5 67q10.5 29 35.5 48.5q25 19.5 65 29.5q40 10 99 10h120v55q0 32 -6.5 54q-6.5 22 -22.5 36q-16 14 -41.5 20.5q-25.5 6.5 -64.5 6.5q-47 0 -86.5 -13.5q-39.5 -13.5 -68.5 -33.5l0 68q26 15 70.5 26q44.5 11 89.5 11q102 0 146 -43q44 -43 44 -137v-350h-54l-6 95q-20 -44 -59 -74.5q-39 -30.5 -101 -30.5zt0 0zM235 48q72 0 113.5 42q41.5 42 41.5 120v40h-120q-43 0 -71.5 -6.5q-28.5 -6.5 -45.5 -19.5q-17 -13 -24 -32.5q-7 -19.5 -7 -46.5q0 -48 26.5 -72.5q26.5 -24.5 86.5 -24.5zt0 0zM155 695h240v-50l-240 0z" />
<glyph unicode="&#258;" horiz-adv-x="640" d="M288 700h64l263 -700h-70l-73 201h-308l-73 -201h-66zM185 259h266l-133 366zM218 905q10 -38 33 -58q23 -20 69 -20q46 0 70 20q24 20 34 58l46 -13q-11 -57 -50.5 -87q-39.5 -30 -99.5 -30q-60 0 -99.5 30q-39.5 30 -50.5 87z" />
<glyph unicode="&#259;" horiz-adv-x="535" d="M230 -10q-85 0 -127.5 41q-42.5 41 -42.5 114q0 38 10.5 67q10.5 29 35.5 48.5q25 19.5 65 29.5q40 10 99 10h120v55q0 32 -6.5 54q-6.5 22 -22.5 36q-16 14 -41.5 20.5q-25.5 6.5 -64.5 6.5q-47 0 -86.5 -13.5q-39.5 -13.5 -68.5 -33.5l0 68q26 15 70.5 26q44.5 11 89.5 11q102 0 146 -43q44 -43 44 -137v-350h-54l-6 95q-20 -44 -59 -74.5q-39 -30.5 -101 -30.5zt0 0zM235 48q72 0 113.5 42q41.5 42 41.5 120v40h-120q-43 0 -71.5 -6.5q-28.5 -6.5 -45.5 -19.5q-17 -13 -24 -32.5q-7 -19.5 -7 -46.5q0 -48 26.5 -72.5q26.5 -24.5 86.5 -24.5zt0 0zM176 745q10 -38 33.5 -59q23.5 -21 65.5 -21q42 0 66.5 21q24.5 21 34.5 59l44 -13q-11 -57 -49.5 -87q-38.5 -30 -95.5 -30q-56 0 -95 30.5q-39 30.5 -50 87.5z" />
<glyph unicode="&#260;" horiz-adv-x="640" d="M545 -190q-80 0 -80 70q0 30 21 60.5q21 30.5 66 59.5l-7 0l-73 201h-308l-73 -201h-66l263 700h64l263 -700q-49 -29 -70.5 -58q-21.5 -29 -21.5 -52q0 -34 37 -34q27 0 55 16l0 -46q-14 -8 -31 -12q-17 -4 -39 -4zt0 0zM185 259h266l-133 366z" />
<glyph unicode="&#261;" horiz-adv-x="535" d="M380 -190q-80 0 -80 70q0 32 22.5 63.5q22.5 31.5 72.5 63.5l-5 88q-20 -44 -59 -74.5q-39 -30.5 -101 -30.5q-85 0 -127.5 41q-42.5 41 -42.5 114q0 38 10.5 67q10.5 29 35.5 48.5q25 19.5 65 29.5q40 10 99 10h120v55q0 32 -6.5 54q-6.5 22 -22.5 36q-16 14 -41.5 20.5q-25.5 6.5 -64.5 6.5q-47 0 -86.5 -13.5q-39.5 -13.5 -68.5 -33.5l0 68q26 15 70.5 26q44.5 11 89.5 11q102 0 146 -43q44 -43 44 -137v-350q-50 -29 -72 -58q-22 -29 -22 -52q0 -17 10 -26.5q10 -9.5 29 -9.5q27 0 55 16l0 -44q-14 -8 -31 -12q-17 -4 -39 -4zt0 0zM235 48q72 0 113.5 42q41.5 42 41.5 120v40h-120q-43 0 -71.5 -6.5q-28.5 -6.5 -45.5 -19.5q-17 -13 -24 -32.5q-7 -19.5 -7 -46.5q0 -48 26.5 -72.5t86.5 -24.5z" />
<glyph unicode="&#262;" horiz-adv-x="575" d="M355 -10q-73 0 -129 20.5q-56 20.5 -94 64.5q-38 44 -57.5 113q-19.5 69 -19.5 167q0 93 20 160q20 67 57.5 110.5q37.5 43.5 92.5 64q55 20.5 125 20.5q38 0 67.5 -4q29.5 -4 51.5 -9q25 -5 45 -12l0 -70q-29 17 -70 26q-41 9 -94 9q-56 0 -98.5 -16q-42.5 -16 -71.5 -51.5q-29 -35.5 -44 -91.5q-15 -56 -15 -136q0 -83 15.5 -140.5q15.5 -57.5 45.5 -94.5q30 -37 73.5 -53.5q43.5 -16.5 99.5 -16.5q56 0 100 15.5q44 15.5 70 29.5l0 -70q-22 -10 -49 -18q-23 -7 -54.5 -12q-31.5 -5 -66.5 -5zt0 0zM384 905h84l-116 -130l-54 0z" />
<glyph unicode="&#263;" horiz-adv-x="475" d="M305 -10q-122 0 -183.5 65.5q-61.5 65.5 -61.5 209.5q0 136 61 200.5q61 64.5 174 64.5q45 0 77.5 -7.5q32.5 -7.5 52.5 -16.5l0 -68q-22 14 -56 24q-34 10 -74 10q-83 0 -128 -49.5q-45 -49.5 -45 -157.5q0 -115 46.5 -166q46.5 -51 136.5 -51q36 0 72 11.5q36 11.5 58 28.5l0 -68q-20 -12 -51.5 -21q-31.5 -9 -78.5 -9zt0 0zM322 745h82l-108 -130l-52 0z" />
<glyph unicode="&#264;" horiz-adv-x="575" d="M355 -10q-73 0 -129 20.5q-56 20.5 -94 64.5q-38 44 -57.5 113q-19.5 69 -19.5 167q0 93 20 160q20 67 57.5 110.5q37.5 43.5 92.5 64q55 20.5 125 20.5q38 0 67.5 -4q29.5 -4 51.5 -9q25 -5 45 -12l0 -70q-29 17 -70 26q-41 9 -94 9q-56 0 -98.5 -16q-42.5 -16 -71.5 -51.5q-29 -35.5 -44 -91.5q-15 -56 -15 -136q0 -83 15.5 -140.5q15.5 -57.5 45.5 -94.5q30 -37 73.5 -53.5q43.5 -16.5 99.5 -16.5q56 0 100 15.5q44 15.5 70 29.5l0 -70q-22 -10 -49 -18q-23 -7 -54.5 -12q-31.5 -5 -66.5 -5zt0 0zM293 905h74l113 -130h-58l-93 88l-93 -88l-56 0z" />
<glyph unicode="&#265;" horiz-adv-x="475" d="M305 -10q-122 0 -183.5 65.5q-61.5 65.5 -61.5 209.5q0 136 61 200.5q61 64.5 174 64.5q45 0 77.5 -7.5q32.5 -7.5 52.5 -16.5l0 -68q-22 14 -56 24q-34 10 -74 10q-83 0 -128 -49.5q-45 -49.5 -45 -157.5q0 -115 46.5 -166q46.5 -51 136.5 -51q36 0 72 11.5q36 11.5 58 28.5l0 -68q-20 -12 -51.5 -21q-31.5 -9 -78.5 -9zt0 0zM240 745h70l110 -130h-56l-89 90l-91 -90l-54 0z" />
<glyph unicode="&#266;" horiz-adv-x="575" d="M355 -10q-73 0 -129 20.5q-56 20.5 -94 64.5q-38 44 -57.5 113q-19.5 69 -19.5 167q0 93 20 160q20 67 57.5 110.5q37.5 43.5 92.5 64q55 20.5 125 20.5q38 0 67.5 -4q29.5 -4 51.5 -9q25 -5 45 -12l0 -70q-29 17 -70 26q-41 9 -94 9q-56 0 -98.5 -16q-42.5 -16 -71.5 -51.5q-29 -35.5 -44 -91.5q-15 -56 -15 -136q0 -83 15.5 -140.5q15.5 -57.5 45.5 -94.5q30 -37 73.5 -53.5q43.5 -16.5 99.5 -16.5q56 0 100 15.5q44 15.5 70 29.5l0 -70q-22 -10 -49 -18q-23 -7 -54.5 -12q-31.5 -5 -66.5 -5zt0 0zM330 796q-44 0 -44 44q0 44 44 44q44 0 44 -44q0 -44 -44 -44z" />
<glyph unicode="&#267;" horiz-adv-x="475" d="M305 -10q-122 0 -183.5 65.5q-61.5 65.5 -61.5 209.5q0 136 61 200.5q61 64.5 174 64.5q45 0 77.5 -7.5q32.5 -7.5 52.5 -16.5l0 -68q-22 14 -56 24q-34 10 -74 10q-83 0 -128 -49.5q-45 -49.5 -45 -157.5q0 -115 46.5 -166q46.5 -51 136.5 -51q36 0 72 11.5q36 11.5 58 28.5l0 -68q-20 -12 -51.5 -21q-31.5 -9 -78.5 -9zt0 0zM275 638q-42 0 -42 42q0 42 42 42q42 0 42 -42q0 -42 -42 -42z" />
<glyph unicode="&#268;" horiz-adv-x="575" d="M355 -10q-73 0 -129 20.5q-56 20.5 -94 64.5q-38 44 -57.5 113q-19.5 69 -19.5 167q0 93 20 160q20 67 57.5 110.5q37.5 43.5 92.5 64q55 20.5 125 20.5q38 0 67.5 -4q29.5 -4 51.5 -9q25 -5 45 -12l0 -70q-29 17 -70 26q-41 9 -94 9q-56 0 -98.5 -16q-42.5 -16 -71.5 -51.5q-29 -35.5 -44 -91.5q-15 -56 -15 -136q0 -83 15.5 -140.5q15.5 -57.5 45.5 -94.5q30 -37 73.5 -53.5q43.5 -16.5 99.5 -16.5q56 0 100 15.5q44 15.5 70 29.5l0 -70q-22 -10 -49 -18q-23 -7 -54.5 -12q-31.5 -5 -66.5 -5zt0 0zM180 905h58l93 -88l93 88h56l-113 -130l-74 0z" />
<glyph unicode="&#269;" horiz-adv-x="475" d="M305 -10q-122 0 -183.5 65.5q-61.5 65.5 -61.5 209.5q0 136 61 200.5q61 64.5 174 64.5q45 0 77.5 -7.5q32.5 -7.5 52.5 -16.5l0 -68q-22 14 -56 24q-34 10 -74 10q-83 0 -128 -49.5q-45 -49.5 -45 -157.5q0 -115 46.5 -166q46.5 -51 136.5 -51q36 0 72 11.5q36 11.5 58 28.5l0 -68q-20 -12 -51.5 -21q-31.5 -9 -78.5 -9zt0 0zM130 745h56l89 -90l91 90h54l-110 -130l-70 0z" />
<glyph unicode="&#270;" horiz-adv-x="680" d="M290 -5q-34 0 -66 1.5q-32 1.5 -58 3.5q-30 2 -56 5l0 690q26 2 56 5q26 2 58 3.5q32 1.5 66 1.5q91 0 155 -18q64 -18 104 -59q40 -41 58 -107q18 -66 18 -161q0 -97 -20 -166q-20 -69 -61.5 -113.5q-41.5 -44.5 -104.5 -65q-63 -20.5 -149 -20.5zt0 0zM559 360q0 82 -13.5 137q-13.5 55 -44.5 88q-31 33 -83 46.5q-52 13.5 -128 13.5q-26 0 -47.5 -1q-21.5 -1 -36.5 -2q-18 -2 -32 -3l0 -578q14 -2 32 -3q30 -3 84 -3q71 0 122 16q51 16 83.5 52q32.5 36 48 94.5q15.5 58.5 15.5 142.5zt0 0zM180 905h58l93 -88l93 88h56l-113 -130l-74 0z" />
<glyph unicode="&#271;" horiz-adv-x="660" d="M640 750h60l-50 -170h-40zM440 95q-9 -21 -23.5 -40.5q-14.5 -19.5 -34.5 -33.5q-20 -14 -48 -22.5q-28 -8.5 -64 -8.5q-51 0 -90 14.5q-39 14.5 -66 47.5q-27 33 -40.5 85.5q-13.5 52.5 -13.5 127.5q0 136 54 200.5q54 64.5 146 64.5q70 0 116.5 -28q46.5 -28 63.5 -77l0 325h60v-750h-54zM122 265q0 -61 10 -102.5q10 -41.5 30 -67q20 -25.5 50 -36.5q30 -11 69 -11q72 0 115.5 46q43.5 46 43.5 132v75q0 37 -9.5 68q-9.5 31 -30 54q-20.5 23 -51.5 36q-31 13 -74 13q-77 0 -115 -47t-38 -160z" />
<glyph unicode="&#272;" horiz-adv-x="690" d="M20 382h100v313q26 2 56 5q26 2 58 3.5q32 1.5 66 1.5q91 0 155 -18q64 -18 104 -59q40 -41 58 -107q18 -66 18 -161q0 -97 -20 -166q-20 -69 -61.5 -113.5q-41.5 -44.5 -104.5 -65q-63 -20.5 -149 -20.5q-34 0 -66 1.5q-32 1.5 -58 3.5q-30 2 -56 5l0 323h-100zM569 360q0 82 -13.5 137q-13.5 55 -44.5 88q-31 33 -83 46.5q-52 13.5 -128 13.5q-26 0 -47.5 -1q-21.5 -1 -36.5 -2q-18 -2 -32 -3l0 -257h186v-54h-186v-267q14 -2 32 -3q30 -3 84 -3q71 0 122 16q51 16 83.5 52q32.5 36 48 94.5t15.5 142.5z" />
<glyph unicode="&#273;" horiz-adv-x="590" d="M240 653h200v97h60v-97h100v-46h-100v-607h-54l-6 95q-9 -21 -23.5 -40.5q-14.5 -19.5 -34.5 -33.5q-20 -14 -48 -22.5q-28 -8.5 -64 -8.5q-51 0 -90 14.5q-39 14.5 -66 47.5q-27 33 -40.5 85.5q-13.5 52.5 -13.5 127.5q0 136 54 200.5q54 64.5 146 64.5q70 0 116.5 -28q46.5 -28 63.5 -77l0 182h-200zM122 265q0 -61 10 -102.5q10 -41.5 30 -67q20 -25.5 50 -36.5q30 -11 69 -11q72 0 115.5 46q43.5 46 43.5 132v75q0 37 -9.5 68q-9.5 31 -30 54q-20.5 23 -51.5 36q-31 13 -74 13q-77 0 -115 -47t-38 -160z" />
<glyph unicode="&#274;" horiz-adv-x="575" d="M110 700h405v-58h-341v-253h301v-58h-301v-273h341v-58h-405zM182 857h260v-54l-260 0z" />
<glyph unicode="&#275;" horiz-adv-x="550" d="M300 -10q-119 0 -179.5 64q-60.5 64 -60.5 206q0 139 59 204.5q59 65.5 161 65.5q52 0 91.5 -13.5q39.5 -13.5 66 -44q26.5 -30.5 39.5 -80q13 -49.5 13 -120.5v-27h-370q1 -101 44.5 -149q43.5 -48 135.5 -48q49 0 88.5 16q39.5 16 66.5 39l0 -68q-20 -14 -60 -29.5q-40 -15.5 -95 -15.5zt0 0zM280 472q-76 0 -117 -41.5q-41 -41.5 -43 -133.5l310 0q0 40 -7 72.5q-7 32.5 -24.5 55.5q-17.5 23 -46.5 35q-29 12 -72 12zt0 0zM160 695h240v-50l-240 0z" />
<glyph unicode="&#278;" horiz-adv-x="575" d="M110 700h405v-58h-341v-253h301v-58h-301v-273h341v-58h-405zM312 796q-44 0 -44 44q0 44 44 44q44 0 44 -44q0 -44 -44 -44z" />
<glyph unicode="&#279;" horiz-adv-x="550" d="M300 -10q-119 0 -179.5 64q-60.5 64 -60.5 206q0 139 59 204.5q59 65.5 161 65.5q52 0 91.5 -13.5q39.5 -13.5 66 -44q26.5 -30.5 39.5 -80q13 -49.5 13 -120.5v-27h-370q1 -101 44.5 -149q43.5 -48 135.5 -48q49 0 88.5 16q39.5 16 66.5 39l0 -68q-20 -14 -60 -29.5q-40 -15.5 -95 -15.5zt0 0zM280 472q-76 0 -117 -41.5q-41 -41.5 -43 -133.5l310 0q0 40 -7 72.5q-7 32.5 -24.5 55.5q-17.5 23 -46.5 35q-29 12 -72 12zt0 0zM280 638q-42 0 -42 42q0 42 42 42q42 0 42 -42q0 -42 -42 -42z" />
<glyph unicode="&#280;" horiz-adv-x="575" d="M110 700h405v-58h-341v-253h301v-58h-301v-273h341v-58q-49 -29 -70.5 -58q-21.5 -29 -21.5 -52q0 -34 37 -34q27 0 55 16l0 -46q-14 -8 -31 -12q-17 -4 -39 -4q-80 0 -80 70q0 30 21 60.5q21 30.5 66 59.5l-342 0z" />
<glyph unicode="&#281;" horiz-adv-x="550" d="M300 -10q-119 0 -179.5 64q-60.5 64 -60.5 206q0 139 59 204.5q59 65.5 161 65.5q52 0 91.5 -13.5q39.5 -13.5 66 -44q26.5 -30.5 39.5 -80q13 -49.5 13 -120.5v-27h-370q1 -101 44.5 -149q43.5 -48 135.5 -48q49 0 88.5 16q39.5 16 66.5 39l0 -68l-7 -5q-60 -45 -86 -76.5q-26 -31.5 -26 -63.5q0 -17 10 -26.5q10 -9.5 29 -9.5q27 0 55 16l0 -44q-14 -8 -31 -12q-17 -4 -39 -4q-80 0 -80 70q0 32 18.5 60.5q18.5 28.5 47.5 53.5q-11 -2 -22.5 -3q-11.5 -1 -23.5 -1zt0 0zM280 472q-76 0 -117 -41.5q-41 -41.5 -43 -133.5l310 0q0 40 -7 72.5q-7 32.5 -24.5 55.5q-17.5 23 -46.5 35t-72 12z" />
<glyph unicode="&#282;" horiz-adv-x="575" d="M110 700h405v-58h-341v-253h301v-58h-301v-273h341v-58h-405zM162 905h58l93 -88l93 88h56l-113 -130l-74 0z" />
<glyph unicode="&#283;" horiz-adv-x="550" d="M300 -10q-119 0 -179.5 64q-60.5 64 -60.5 206q0 139 59 204.5q59 65.5 161 65.5q52 0 91.5 -13.5q39.5 -13.5 66 -44q26.5 -30.5 39.5 -80q13 -49.5 13 -120.5v-27h-370q1 -101 44.5 -149q43.5 -48 135.5 -48q49 0 88.5 16q39.5 16 66.5 39l0 -68q-20 -14 -60 -29.5q-40 -15.5 -95 -15.5zt0 0zM280 472q-76 0 -117 -41.5q-41 -41.5 -43 -133.5l310 0q0 40 -7 72.5q-7 32.5 -24.5 55.5q-17.5 23 -46.5 35q-29 12 -72 12zt0 0zM135 745h56l89 -90l91 90h54l-110 -130l-70 0z" />
<glyph unicode="&#284;" horiz-adv-x="650" d="M380 -10q-81 0 -142 21q-61 21 -101.5 65q-40.5 44 -61 113.5q-20.5 69.5 -20.5 165.5q0 181 83.5 268q83.5 87 241.5 87q35 0 64 -4q29 -4 49 -9q24 -5 42 -12l0 -70q-26 14 -66 24.5q-40 10.5 -89 10.5q-129 0 -194 -69.5q-65 -69.5 -65 -225.5q0 -83 15.5 -141q15.5 -58 48 -94.5q32.5 -36.5 81 -53q48.5 -16.5 114.5 -16.5q35 0 70 5q35 5 61 15l0 216h-151v58h215v-314q-26 -13 -78 -26.5q-52 -13.5 -117 -13.5zt0 0zM323 905h74l113 -130h-58l-93 88l-93 -88l-56 0z" />
<glyph unicode="&#285;" horiz-adv-x="590" d="M280 -190q-63 0 -108 12q-45 12 -72 27l0 78q10 -10 27.5 -20.5q17.5 -10.5 40.5 -19q23 -8.5 50 -14q27 -5.5 57 -5.5q88 0 126.5 36q38.5 36 38.5 111v90q-9 -21 -23.5 -40.5q-14.5 -19.5 -34.5 -33.5q-20 -14 -48 -22.5q-28 -8.5 -64 -8.5q-51 0 -90 14.5q-39 14.5 -66 47q-27 32.5 -40.5 83.5q-13.5 51 -13.5 125q0 133 54 196.5q54 63.5 146 63.5q70 0 116.5 -28q46.5 -28 63.5 -77l6 95h54v-500q0 -106 -53.5 -158q-53.5 -52 -166.5 -52zt0 0zM281 58q36 0 65 12.5q29 12.5 50 35.5q21 23 32.5 56q11.5 33 11.5 74v71q0 34 -9.5 64.5q-9.5 30.5 -30 52.5q-20.5 22 -51.5 35q-31 13 -74 13q-77 0 -115 -46.5q-38 -46.5 -38 -155.5q0 -59 10 -99.5q10 -40.5 30 -65.5q20 -25 50 -36q30 -11 69 -11zt0 0zM245 745h70l110 -130h-56l-89 90l-91 -90l-54 0z" />
<glyph unicode="&#286;" horiz-adv-x="650" d="M380 -10q-81 0 -142 21q-61 21 -101.5 65q-40.5 44 -61 113.5q-20.5 69.5 -20.5 165.5q0 181 83.5 268q83.5 87 241.5 87q35 0 64 -4q29 -4 49 -9q24 -5 42 -12l0 -70q-26 14 -66 24.5q-40 10.5 -89 10.5q-129 0 -194 -69.5q-65 -69.5 -65 -225.5q0 -83 15.5 -141q15.5 -58 48 -94.5q32.5 -36.5 81 -53q48.5 -16.5 114.5 -16.5q35 0 70 5q35 5 61 15l0 216h-151v58h215v-314q-26 -13 -78 -26.5q-52 -13.5 -117 -13.5zt0 0zM258 905q10 -38 33 -58q23 -20 69 -20q46 0 70 20q24 20 34 58l46 -13q-11 -57 -50.5 -87q-39.5 -30 -99.5 -30q-60 0 -99.5 30q-39.5 30 -50.5 87z" />
<glyph unicode="&#287;" horiz-adv-x="590" d="M280 -190q-63 0 -108 12q-45 12 -72 27l0 78q10 -10 27.5 -20.5q17.5 -10.5 40.5 -19q23 -8.5 50 -14q27 -5.5 57 -5.5q88 0 126.5 36q38.5 36 38.5 111v90q-9 -21 -23.5 -40.5q-14.5 -19.5 -34.5 -33.5q-20 -14 -48 -22.5q-28 -8.5 -64 -8.5q-51 0 -90 14.5q-39 14.5 -66 47q-27 32.5 -40.5 83.5q-13.5 51 -13.5 125q0 133 54 196.5q54 63.5 146 63.5q70 0 116.5 -28q46.5 -28 63.5 -77l6 95h54v-500q0 -106 -53.5 -158q-53.5 -52 -166.5 -52zt0 0zM281 58q36 0 65 12.5q29 12.5 50 35.5q21 23 32.5 56q11.5 33 11.5 74v71q0 34 -9.5 64.5q-9.5 30.5 -30 52.5q-20.5 22 -51.5 35q-31 13 -74 13q-77 0 -115 -46.5q-38 -46.5 -38 -155.5q0 -59 10 -99.5q10 -40.5 30 -65.5q20 -25 50 -36q30 -11 69 -11zt0 0zM181 745q10 -38 33.5 -59q23.5 -21 65.5 -21q42 0 66.5 21q24.5 21 34.5 59l44 -13q-11 -57 -49.5 -87q-38.5 -30 -95.5 -30q-56 0 -95 30.5q-39 30.5 -50 87.5z" />
<glyph unicode="&#288;" horiz-adv-x="650" d="M380 -10q-81 0 -142 21q-61 21 -101.5 65q-40.5 44 -61 113.5q-20.5 69.5 -20.5 165.5q0 181 83.5 268q83.5 87 241.5 87q35 0 64 -4q29 -4 49 -9q24 -5 42 -12l0 -70q-26 14 -66 24.5q-40 10.5 -89 10.5q-129 0 -194 -69.5q-65 -69.5 -65 -225.5q0 -83 15.5 -141q15.5 -58 48 -94.5q32.5 -36.5 81 -53q48.5 -16.5 114.5 -16.5q35 0 70 5q35 5 61 15l0 216h-151v58h215v-314q-26 -13 -78 -26.5q-52 -13.5 -117 -13.5zt0 0zM360 796q-44 0 -44 44q0 44 44 44q44 0 44 -44q0 -44 -44 -44z" />
<glyph unicode="&#289;" horiz-adv-x="590" d="M280 -190q-63 0 -108 12q-45 12 -72 27l0 78q10 -10 27.5 -20.5q17.5 -10.5 40.5 -19q23 -8.5 50 -14q27 -5.5 57 -5.5q88 0 126.5 36q38.5 36 38.5 111v90q-9 -21 -23.5 -40.5q-14.5 -19.5 -34.5 -33.5q-20 -14 -48 -22.5q-28 -8.5 -64 -8.5q-51 0 -90 14.5q-39 14.5 -66 47q-27 32.5 -40.5 83.5q-13.5 51 -13.5 125q0 133 54 196.5q54 63.5 146 63.5q70 0 116.5 -28q46.5 -28 63.5 -77l6 95h54v-500q0 -106 -53.5 -158q-53.5 -52 -166.5 -52zt0 0zM281 58q36 0 65 12.5q29 12.5 50 35.5q21 23 32.5 56q11.5 33 11.5 74v71q0 34 -9.5 64.5q-9.5 30.5 -30 52.5q-20.5 22 -51.5 35q-31 13 -74 13q-77 0 -115 -46.5q-38 -46.5 -38 -155.5q0 -59 10 -99.5q10 -40.5 30 -65.5q20 -25 50 -36q30 -11 69 -11zt0 0zM280 638q-42 0 -42 42q0 42 42 42q42 0 42 -42q0 -42 -42 -42z" />
<glyph unicode="&#290;" horiz-adv-x="650" d="M380 -10q-81 0 -142 21q-61 21 -101.5 65q-40.5 44 -61 113.5q-20.5 69.5 -20.5 165.5q0 181 83.5 268q83.5 87 241.5 87q35 0 64 -4q29 -4 49 -9q24 -5 42 -12l0 -70q-26 14 -66 24.5q-40 10.5 -89 10.5q-129 0 -194 -69.5q-65 -69.5 -65 -225.5q0 -83 15.5 -141q15.5 -58 48 -94.5q32.5 -36.5 81 -53q48.5 -16.5 114.5 -16.5q35 0 70 5q35 5 61 15l0 216h-151v58h215v-314q-26 -13 -78 -26.5q-52 -13.5 -117 -13.5zt0 0zM303 -168q20 3 38.5 11q18.5 8 21.5 25q-35 0 -47.5 11.5q-12.5 11.5 -12.5 30.5q0 18 13 29q13 11 44 11q29 0 43 -13.5q14 -13.5 14 -36.5q0 -41 -25.5 -71.5q-25.5 -30.5 -78.5 -38.5z" />
<glyph unicode="&#291;" horiz-adv-x="590" d="M280 -190q-63 0 -108 12q-45 12 -72 27l0 78q10 -10 27.5 -20.5q17.5 -10.5 40.5 -19q23 -8.5 50 -14q27 -5.5 57 -5.5q88 0 126.5 36q38.5 36 38.5 111v90q-9 -21 -23.5 -40.5q-14.5 -19.5 -34.5 -33.5q-20 -14 -48 -22.5q-28 -8.5 -64 -8.5q-51 0 -90 14.5q-39 14.5 -66 47q-27 32.5 -40.5 83.5q-13.5 51 -13.5 125q0 133 54 196.5q54 63.5 146 63.5q70 0 116.5 -28q46.5 -28 63.5 -77l6 95h54v-500q0 -106 -53.5 -158q-53.5 -52 -166.5 -52zt0 0zM281 58q36 0 65 12.5q29 12.5 50 35.5q21 23 32.5 56q11.5 33 11.5 74v71q0 34 -9.5 64.5q-9.5 30.5 -30 52.5q-20.5 22 -51.5 35q-31 13 -74 13q-77 0 -115 -46.5q-38 -46.5 -38 -155.5q0 -59 10 -99.5q10 -40.5 30 -65.5q20 -25 50 -36q30 -11 69 -11zt0 0zM335 739q-25 -4 -41.5 -13q-16.5 -9 -19.5 -26q34 0 47.5 -10.5q13.5 -10.5 13.5 -29.5q0 -18 -13 -29q-13 -11 -42 -11q-55 0 -55 55q0 16 5.5 33q5.5 17 17.5 32q12 15 31 25.5q19 10.5 46 14.5z" />
<glyph unicode="&#292;" horiz-adv-x="720" d="M110 700h64v-311h372v311h64v-700h-64v331h-372v-331h-64zM323 905h74l113 -130h-58l-93 88l-93 -88l-56 0z" />
<glyph unicode="&#293;" horiz-adv-x="585" d="M90 750h60v-325q23 48 61.5 76.5q38.5 28.5 108.5 28.5q92 0 136 -46.5q44 -46.5 44 -153.5v-330h-60v310q0 46 -7.5 77q-7.5 31 -24 50q-16.5 19 -42 27q-25.5 8 -61.5 8q-72 0 -113.5 -42q-41.5 -42 -41.5 -120v-310h-60zM85 905h70l110 -130h-56l-89 90l-91 -90l-54 0z" />
<glyph unicode="&#294;" horiz-adv-x="740" d="M20 577h100v123h64v-123h372v123h64v-123h100v-54h-100v-523h-64v331h-372v-331h-64v523h-100zM556 389v134h-372l0 -134z" />
<glyph unicode="&#295;" horiz-adv-x="605" d="M10 656h100v94h60v-94h200v-52h-200v-179q23 48 61.5 76.5q38.5 28.5 108.5 28.5q92 0 136 -46.5q44 -46.5 44 -153.5v-330h-60v310q0 46 -7.5 77q-7.5 31 -24 50q-16.5 19 -42 27q-25.5 8 -61.5 8q-72 0 -113.5 -42q-41.5 -42 -41.5 -120v-310h-60v604l-100 0z" />
<glyph unicode="&#298;" horiz-adv-x="330" d="M133 700h64v-700h-64zM35 857h260v-54l-260 0z" />
<glyph unicode="&#299;" horiz-adv-x="290" d="M115 520h60v-520h-60zM25 695h240v-50l-240 0z" />
<glyph unicode="&#302;" horiz-adv-x="330" d="M127 -190q-80 0 -80 70q0 30 20.5 60q20.5 30 65.5 61l0 699h64v-700q-50 -29 -72 -58q-22 -29 -22 -52q0 -17 10 -26.5q10 -9.5 29 -9.5q27 0 55 16l0 -44q-14 -8 -31 -12t-39 -4z" />
<glyph unicode="&#303;" horiz-adv-x="290" d="M105 -190q-80 0 -80 70q0 30 21 60.5q21 30.5 69 62.5l0 517h60v-520q-50 -29 -72 -58q-22 -29 -22 -52q0 -17 10 -26.5q10 -9.5 29 -9.5q27 0 55 16l0 -44q-14 -8 -31 -12q-17 -4 -39 -4zt0 0zM145 638q-42 0 -42 42q0 42 42 42q42 0 42 -42q0 -42 -42 -42z" />
<glyph unicode="&#304;" horiz-adv-x="330" d="M133 700h64v-700h-64zM165 796q-44 0 -44 44q0 44 44 44q44 0 44 -44q0 -44 -44 -44z" />
<glyph unicode="&#305;" horiz-adv-x="290" d="M115 520h60v-520l-60 0z" />
<glyph unicode="&#308;" horiz-adv-x="420" d="M140 -10q-23 0 -41.5 3q-18.5 3 -31.5 7q-16 4 -27 10l0 70q11 -9 26 -15q13 -6 31 -10.5q18 -4.5 43 -4.5q48 0 72 26q24 26 24 84v540h64v-540q0 -88 -39.5 -129q-39.5 -41 -120.5 -41zt0 0zM233 905h70l110 -130h-56l-89 90l-91 -90l-54 0z" />
<glyph unicode="&#309;" horiz-adv-x="290" d="M46 -185q-48 0 -70 10l0 68q13 -8 30.5 -14q17.5 -6 39.5 -6q35 0 52 19.5q17 19.5 17 72.5v555h60v-555q0 -80 -32.5 -115q-32.5 -35 -96.5 -35zt0 0zM110 745h70l110 -130h-56l-89 90l-91 -90l-54 0z" />
<glyph unicode="&#310;" horiz-adv-x="655" d="M254 331h-80v-331h-64v700h64v-311h80l269 311h82l-295 -339l315 -361h-84zM310 -168q20 3 38.5 11q18.5 8 21.5 25q-35 0 -47.5 11.5q-12.5 11.5 -12.5 30.5q0 18 13 29q13 11 44 11q29 0 43 -13.5q14 -13.5 14 -36.5q0 -41 -25.5 -71.5q-25.5 -30.5 -78.5 -38.5z" />
<glyph unicode="&#311;" horiz-adv-x="555" d="M90 750h60v-452h70l192 222h76l-217 -249l239 -271h-78l-212 242h-70v-242h-60zM245 -169q25 4 41.5 13q16.5 9 19.5 26q-34 0 -47.5 10.5q-13.5 10.5 -13.5 29.5q0 18 13 29q13 11 42 11q55 0 55 -55q0 -16 -5.5 -33q-5.5 -17 -17.5 -32q-12 -15 -31 -25.5q-19 -10.5 -46 -14.5z" />
<glyph unicode="&#313;" horiz-adv-x="530" d="M110 700h64v-642h321v-58h-385zM196 905h84l-116 -130l-54 0z" />
<glyph unicode="&#314;" horiz-adv-x="315" d="M205 -5q-62 0 -91 30q-29 30 -29 90v635h60v-625q0 -43 15 -57.5q15 -14.5 50 -14.5q19 0 36.5 5q17.5 5 28.5 10l0 -58q-11 -5 -29 -10q-18 -5 -41 -5zt0 0zM167 905h82l-108 -130l-52 0z" />
<glyph unicode="&#315;" horiz-adv-x="530" d="M110 700h64v-642h321v-58h-385zM245 -168q20 3 38.5 11q18.5 8 21.5 25q-35 0 -47.5 11.5q-12.5 11.5 -12.5 30.5q0 18 13 29q13 11 44 11q29 0 43 -13.5q14 -13.5 14 -36.5q0 -41 -25.5 -71.5q-25.5 -30.5 -78.5 -38.5z" />
<glyph unicode="&#316;" horiz-adv-x="315" d="M205 -5q-62 0 -91 30q-29 30 -29 90v635h60v-625q0 -43 15 -57.5q15 -14.5 50 -14.5q19 0 36.5 5q17.5 5 28.5 10l0 -58q-11 -5 -29 -10q-18 -5 -41 -5zt0 0zM130 -169q25 4 41.5 13q16.5 9 19.5 26q-34 0 -47.5 10.5q-13.5 10.5 -13.5 29.5q0 18 13 29q13 11 42 11q55 0 55 -55q0 -16 -5.5 -33q-5.5 -17 -17.5 -32q-12 -15 -31 -25.5q-19 -10.5 -46 -14.5z" />
<glyph unicode="&#317;" horiz-adv-x="530" d="M371 700h64l-56 -180h-44zM110 700h64v-642h321v-58l-385 0z" />
<glyph unicode="&#318;" horiz-adv-x="375" d="M295 750h60l-60 -170h-40zM205 -5q-62 0 -91 30q-29 30 -29 90v635h60v-625q0 -43 15 -57.5q15 -14.5 50 -14.5q19 0 36.5 5q17.5 5 28.5 10l0 -58q-11 -5 -29 -10t-41 -5z" />
<glyph unicode="&#319;" horiz-adv-x="530" d="M110 700h64v-642h321v-58h-385zM407 330q-50 0 -50 50q0 50 50 50q50 0 50 -50q0 -50 -50 -50z" />
<glyph unicode="&#320;" horiz-adv-x="415" d="M205 -5q-62 0 -91 30q-29 30 -29 90v635h60v-625q0 -43 15 -57.5q15 -14.5 50 -14.5q19 0 36.5 5q17.5 5 28.5 10l0 -58q-11 -5 -29 -10q-18 -5 -41 -5zt0 0zM317 330q-50 0 -50 50q0 50 50 50q50 0 50 -50q0 -50 -50 -50z" />
<glyph unicode="&#321;" horiz-adv-x="540" d="M20 342l100 58v300h64v-263l160 93v-64l-160 -93v-315h321v-58h-385v336l-100 -58z" />
<glyph unicode="&#322;" horiz-adv-x="370" d="M20 374l100 58v318h60v-284l110 64v-62l-110 -64v-279q0 -43 15 -57.5q15 -14.5 50 -14.5q19 0 36.5 5q17.5 5 28.5 10l0 -58q-11 -5 -29 -10q-18 -5 -41 -5q-62 0 -91 30q-29 30 -29 90v255l-100 -58z" />
<glyph unicode="&#323;" horiz-adv-x="740" d="M110 700h66l331 -500q12 -19 23 -37q11 -18 19 -32q10 -17 18 -31l2 0q-1 14 -2 31q-1 14 -1 32q0 18 0 37v500h64v-700h-66l-331 500q-30 45 -45 72q-9 15 -15 28l-2 0q0 -13 1 -28q1 -14 1.5 -31.5q0.5 -17.5 0.5 -40.5v-500h-64zM424 905h84l-116 -130l-54 0z" />
<glyph unicode="&#324;" horiz-adv-x="585" d="M90 520h54l6 -95q23 47 61.5 76q38.5 29 108.5 29q92 0 136 -46.5q44 -46.5 44 -153.5v-330h-60v310q0 46 -7.5 77q-7.5 31 -24 50q-16.5 19 -42 27q-25.5 8 -61.5 8q-72 0 -113.5 -42q-41.5 -42 -41.5 -120v-310h-60zM342 745h82l-108 -130l-52 0z" />
<glyph unicode="&#325;" horiz-adv-x="740" d="M110 700h66l331 -500q12 -19 23 -37q11 -18 19 -32q10 -17 18 -31l2 0q-1 14 -2 31q-1 14 -1 32q0 18 0 37v500h64v-700h-66l-331 500q-30 45 -45 72q-9 15 -15 28l-2 0q0 -13 1 -28q1 -14 1.5 -31.5q0.5 -17.5 0.5 -40.5v-500h-64zM313 -168q20 3 38.5 11q18.5 8 21.5 25q-35 0 -47.5 11.5q-12.5 11.5 -12.5 30.5q0 18 13 29q13 11 44 11q29 0 43 -13.5q14 -13.5 14 -36.5q0 -41 -25.5 -71.5q-25.5 -30.5 -78.5 -38.5z" />
<glyph unicode="&#326;" horiz-adv-x="585" d="M90 520h54l6 -95q23 47 61.5 76q38.5 29 108.5 29q92 0 136 -46.5q44 -46.5 44 -153.5v-330h-60v310q0 46 -7.5 77q-7.5 31 -24 50q-16.5 19 -42 27q-25.5 8 -61.5 8q-72 0 -113.5 -42q-41.5 -42 -41.5 -120v-310h-60zM240 -169q25 4 41.5 13q16.5 9 19.5 26q-34 0 -47.5 10.5q-13.5 10.5 -13.5 29.5q0 18 13 29q13 11 42 11q55 0 55 -55q0 -16 -5.5 -33q-5.5 -17 -17.5 -32q-12 -15 -31 -25.5q-19 -10.5 -46 -14.5z" />
<glyph unicode="&#327;" horiz-adv-x="740" d="M110 700h66l331 -500q12 -19 23 -37q11 -18 19 -32q10 -17 18 -31l2 0q-1 14 -2 31q-1 14 -1 32q0 18 0 37v500h64v-700h-66l-331 500q-30 45 -45 72q-9 15 -15 28l-2 0q0 -13 1 -28q1 -14 1.5 -31.5q0.5 -17.5 0.5 -40.5v-500h-64zM220 905h58l93 -88l93 88h56l-113 -130l-74 0z" />
<glyph unicode="&#328;" horiz-adv-x="585" d="M90 520h54l6 -95q23 47 61.5 76q38.5 29 108.5 29q92 0 136 -46.5q44 -46.5 44 -153.5v-330h-60v310q0 46 -7.5 77q-7.5 31 -24 50q-16.5 19 -42 27q-25.5 8 -61.5 8q-72 0 -113.5 -42q-41.5 -42 -41.5 -120v-310h-60zM150 745h56l89 -90l91 90h54l-110 -130l-70 0z" />
<glyph unicode="&#332;" horiz-adv-x="710" d="M355 -10q-71 0 -127 21q-56 21 -94.5 65q-38.5 44 -58.5 112q-20 68 -20 162q0 189 78 274.5q78 85.5 222 85.5q74 0 130 -20q56 -20 94 -63.5q38 -43.5 57 -112q19 -68.5 19 -164.5q0 -189 -78 -274.5q-78 -85.5 -222 -85.5zt0 0zM355 50q57 0 100.5 16.5q43.5 16.5 73 52.5q29.5 36 45 93q15.5 57 15.5 138q0 82 -15 139q-15 57 -45 93q-30 36 -73.5 52q-43.5 16 -100.5 16q-56 0 -99.5 -16.5q-43.5 -16.5 -73.5 -52.5q-30 -36 -45.5 -93q-15.5 -57 -15.5 -138q0 -80 16 -137q16 -57 46 -93q30 -36 73.5 -53q43.5 -17 98.5 -17zt0 0zM225 857h260v-54l-260 0z" />
<glyph unicode="&#333;" horiz-adv-x="570" d="M285 -10q-109 0 -167 64q-58 64 -58 206q0 137 61 203.5q61 66.5 164 66.5q55 0 97.5 -15q42.5 -15 70.5 -47.5q28 -32.5 42.5 -84q14.5 -51.5 14.5 -123.5q0 -142 -59 -206q-59 -64 -166 -64zt0 0zM285 472q-78 0 -120.5 -48.5q-42.5 -48.5 -42.5 -163.5q0 -59 10 -99.5q10 -40.5 30.5 -65.5q20.5 -25 51 -36q30.5 -11 71.5 -11q41 0 71.5 11q30.5 11 51 36q20.5 25 30.5 65.5q10 40.5 10 99.5q0 59 -10 99.5q-10 40.5 -30.5 65.5q-20.5 25 -51 36q-30.5 11 -71.5 11zt0 0zM165 695h240v-50l-240 0z" />
<glyph unicode="&#336;" horiz-adv-x="710" d="M355 -10q-71 0 -127 21q-56 21 -94.5 65q-38.5 44 -58.5 112q-20 68 -20 162q0 189 78 274.5q78 85.5 222 85.5q74 0 130 -20q56 -20 94 -63.5q38 -43.5 57 -112q19 -68.5 19 -164.5q0 -189 -78 -274.5q-78 -85.5 -222 -85.5zt0 0zM355 50q57 0 100.5 16.5q43.5 16.5 73 52.5q29.5 36 45 93q15.5 57 15.5 138q0 82 -15 139q-15 57 -45 93q-30 36 -73.5 52q-43.5 16 -100.5 16q-56 0 -99.5 -16.5q-43.5 -16.5 -73.5 -52.5q-30 -36 -45.5 -93q-15.5 -57 -15.5 -138q0 -80 16 -137q16 -57 46 -93q30 -36 73.5 -53q43.5 -17 98.5 -17zt0 0zM318 905h76l-90 -130h-46zM490 905h88l-136 -130l-52 0z" />
<glyph unicode="&#337;" horiz-adv-x="570" d="M285 -10q-109 0 -167 64q-58 64 -58 206q0 137 61 203.5q61 66.5 164 66.5q55 0 97.5 -15q42.5 -15 70.5 -47.5q28 -32.5 42.5 -84q14.5 -51.5 14.5 -123.5q0 -142 -59 -206q-59 -64 -166 -64zt0 0zM285 472q-78 0 -120.5 -48.5q-42.5 -48.5 -42.5 -163.5q0 -59 10 -99.5q10 -40.5 30.5 -65.5q20.5 -25 51 -36q30.5 -11 71.5 -11q41 0 71.5 11q30.5 11 51 36q20.5 25 30.5 65.5q10 40.5 10 99.5q0 59 -10 99.5q-10 40.5 -30.5 65.5q-20.5 25 -51 36q-30.5 11 -71.5 11zt0 0zM243 745h76l-80 -130h-46zM405 745h88l-126 -130l-52 0z" />
<glyph unicode="&#338;" horiz-adv-x="935" d="M355 -10q-73 0 -129 20.5q-56 20.5 -94 64.5q-38 44 -57.5 113q-19.5 69 -19.5 167q0 185 78 270q78 85 222 85q40 0 72 -3.5q32 -3.5 52 -6.5l396 0v-58h-341v-253h301v-58h-301v-273h341v-58h-389q-22 -3 -56 -6.5q-34 -3.5 -75 -3.5zt0 0zM355 50q33 0 62.5 2.5q29.5 2.5 52.5 5.5l0 583q-20 3 -49.5 6q-29.5 3 -65.5 3q-57 0 -101 -16q-44 -16 -73.5 -51.5q-29.5 -35.5 -44.5 -91.5q-15 -56 -15 -136q0 -83 15.5 -140.5q15.5 -57.5 45.5 -94.5q30 -37 73.5 -53.5t99.5 -16.5z" />
<glyph unicode="&#339;" horiz-adv-x="920" d="M675 -10q-76 0 -127.5 28.5q-51.5 28.5 -77.5 90.5q-26 -62 -74 -90.5q-48 -28.5 -116 -28.5q-105 0 -162.5 64q-57.5 64 -57.5 206q0 136 60.5 203q60.5 67 159.5 67q70 0 118.5 -27.5q48.5 -27.5 72.5 -90.5q26 60 73.5 89q47.5 29 110.5 29q51 0 89 -13.5q38 -13.5 64 -44q26 -30.5 39 -80q13 -49.5 13 -120.5v-27h-360q1 -101 44 -149q43 -48 131 -48q45 0 84 16q39 16 66 39l0 -68q-20 -15 -59.5 -30q-39.5 -15 -90.5 -15zt0 0zM280 472q-74 0 -116 -48.5q-42 -48.5 -42 -163.5q0 -59 10 -99.5q10 -40.5 30 -65.5q20 -25 49.5 -36q29.5 -11 68.5 -11q39 0 68.5 11q29.5 11 49.5 36q20 25 30 65.5q10 40.5 10 99.5q0 59 -10 99.5q-10 40.5 -30 65.5q-20 25 -49.5 36q-29.5 11 -68.5 11zt0 0zM655 472q-72 0 -112.5 -41.5q-40.5 -41.5 -42.5 -133.5l300 0q0 40 -7 72.5q-7 32.5 -24 55.5q-17 23 -44.5 35t-69.5 12z" />
<glyph unicode="&#340;" horiz-adv-x="640" d="M340 289q-26 -3 -55 -3h-111v-286h-64v695q24 2 52 5q24 2 55.5 3.5q31.5 1.5 67.5 1.5q68 0 115.5 -13q47.5 -13 77.5 -39q30 -26 43.5 -65.5q13.5 -39.5 13.5 -92.5q0 -72 -31.5 -121q-31.5 -49 -98.5 -72l175 -302h-74zM469 495q0 40 -9 68.5q-9 28.5 -30 46.5q-21 18 -56.5 26.5q-35.5 8.5 -88.5 8.5q-21 0 -40.5 -0.5q-19.5 -0.5 -35.5 -1.5q-18 -1 -35 -1l0 -298h111q99 0 141.5 38.5q42.5 38.5 42.5 112.5zt0 0zM354 905h84l-116 -130l-54 0z" />
<glyph unicode="&#341;" horiz-adv-x="410" d="M90 520h49l6 -95q20 57 58.5 81q38.5 24 92.5 24q15 0 30 -2q15 -2 24 -6l0 -68q-14 8 -31 13q-17 5 -42 5q-59 0 -93 -38.5q-34 -38.5 -34 -123.5v-310h-60zM267 745h82l-108 -130l-52 0z" />
<glyph unicode="&#342;" horiz-adv-x="640" d="M340 289q-26 -3 -55 -3h-111v-286h-64v695q24 2 52 5q24 2 55.5 3.5q31.5 1.5 67.5 1.5q68 0 115.5 -13q47.5 -13 77.5 -39q30 -26 43.5 -65.5q13.5 -39.5 13.5 -92.5q0 -72 -31.5 -121q-31.5 -49 -98.5 -72l175 -302h-74zM469 495q0 40 -9 68.5q-9 28.5 -30 46.5q-21 18 -56.5 26.5q-35.5 8.5 -88.5 8.5q-21 0 -40.5 -0.5q-19.5 -0.5 -35.5 -1.5q-18 -1 -35 -1l0 -298h111q99 0 141.5 38.5q42.5 38.5 42.5 112.5zt0 0zM288 -168q20 3 38.5 11q18.5 8 21.5 25q-35 0 -47.5 11.5q-12.5 11.5 -12.5 30.5q0 18 13 29q13 11 44 11q29 0 43 -13.5q14 -13.5 14 -36.5q0 -41 -25.5 -71.5q-25.5 -30.5 -78.5 -38.5z" />
<glyph unicode="&#343;" horiz-adv-x="410" d="M90 520h49l6 -95q20 57 58.5 81q38.5 24 92.5 24q15 0 30 -2q15 -2 24 -6l0 -68q-14 8 -31 13q-17 5 -42 5q-59 0 -93 -38.5q-34 -38.5 -34 -123.5v-310h-60zM65 -169q25 4 41.5 13q16.5 9 19.5 26q-34 0 -47.5 10.5q-13.5 10.5 -13.5 29.5q0 18 13 29q13 11 42 11q55 0 55 -55q0 -16 -5.5 -33q-5.5 -17 -17.5 -32q-12 -15 -31 -25.5q-19 -10.5 -46 -14.5z" />
<glyph unicode="&#344;" horiz-adv-x="640" d="M340 289q-26 -3 -55 -3h-111v-286h-64v695q24 2 52 5q24 2 55.5 3.5q31.5 1.5 67.5 1.5q68 0 115.5 -13q47.5 -13 77.5 -39q30 -26 43.5 -65.5q13.5 -39.5 13.5 -92.5q0 -72 -31.5 -121q-31.5 -49 -98.5 -72l175 -302h-74zM469 495q0 40 -9 68.5q-9 28.5 -30 46.5q-21 18 -56.5 26.5q-35.5 8.5 -88.5 8.5q-21 0 -40.5 -0.5q-19.5 -0.5 -35.5 -1.5q-18 -1 -35 -1l0 -298h111q99 0 141.5 38.5q42.5 38.5 42.5 112.5zt0 0zM150 905h58l93 -88l93 88h56l-113 -130l-74 0z" />
<glyph unicode="&#345;" horiz-adv-x="410" d="M90 520h49l6 -95q20 57 58.5 81q38.5 24 92.5 24q15 0 30 -2q15 -2 24 -6l0 -68q-14 8 -31 13q-17 5 -42 5q-59 0 -93 -38.5q-34 -38.5 -34 -123.5v-310h-60zM75 745h56l89 -90l91 90h54l-110 -130l-70 0z" />
<glyph unicode="&#346;" horiz-adv-x="580" d="M280 -10q-61 0 -113.5 16.5q-52.5 16.5 -81.5 38.5l0 80q33 -29 83 -52q50 -23 112 -23q85 0 122 33.5q37 33.5 37 96.5q0 37 -15 62q-15 25 -39.5 42q-24.5 17 -56 29q-31.5 12 -64 23.5q-32.5 11.5 -64 25.5q-31.5 14 -56 36q-24.5 22 -39.5 53.5q-15 31.5 -15 78.5q0 86 52 133q52 47 168 47q52 0 94.5 -10.5q42.5 -10.5 70.5 -24.5l0 -80q-27 24 -72 39.5q-45 15.5 -93 15.5q-87 0 -120.5 -29.5q-33.5 -29.5 -33.5 -90.5q0 -49 26 -75.5q26 -26.5 64.5 -43q38.5 -16.5 84 -30q45.5 -13.5 84 -36q38.5 -22.5 64.5 -61q26 -38.5 26 -104.5q0 -91 -54 -140.5q-54 -49.5 -171 -49.5zt0 0zM349 905h84l-116 -130l-54 0z" />
<glyph unicode="&#347;" horiz-adv-x="475" d="M230 -10q-49 0 -84.5 8q-35.5 8 -65.5 22l0 78q61 -50 150 -50q60 0 86.5 23.5q26.5 23.5 26.5 68.5q0 36 -20 55q-20 19 -49.5 30q-29.5 11 -64.5 19q-35 8 -64.5 23q-29.5 15 -49.5 42q-20 27 -20 76q0 69 41.5 107q41.5 38 133.5 38q42 0 77 -8q35 -8 53 -16l0 -73q-26 18 -59 28.5q-33 10.5 -71 10.5q-63 0 -88 -21.5q-25 -21.5 -25 -60.5q0 -35 20 -52.5q20 -17.5 49.5 -27.5q29.5 -10 64.5 -18q35 -8 64.5 -23.5q29.5 -15.5 49.5 -44q20 -28.5 20 -79.5q0 -78 -41.5 -116.5q-41.5 -38.5 -133.5 -38.5zt0 0zM287 745h82l-108 -130l-52 0z" />
<glyph unicode="&#348;" horiz-adv-x="580" d="M280 -10q-61 0 -113.5 16.5q-52.5 16.5 -81.5 38.5l0 80q33 -29 83 -52q50 -23 112 -23q85 0 122 33.5q37 33.5 37 96.5q0 37 -15 62q-15 25 -39.5 42q-24.5 17 -56 29q-31.5 12 -64 23.5q-32.5 11.5 -64 25.5q-31.5 14 -56 36q-24.5 22 -39.5 53.5q-15 31.5 -15 78.5q0 86 52 133q52 47 168 47q52 0 94.5 -10.5q42.5 -10.5 70.5 -24.5l0 -80q-27 24 -72 39.5q-45 15.5 -93 15.5q-87 0 -120.5 -29.5q-33.5 -29.5 -33.5 -90.5q0 -49 26 -75.5q26 -26.5 64.5 -43q38.5 -16.5 84 -30q45.5 -13.5 84 -36q38.5 -22.5 64.5 -61q26 -38.5 26 -104.5q0 -91 -54 -140.5q-54 -49.5 -171 -49.5zt0 0zM258 905h74l113 -130h-58l-93 88l-93 -88l-56 0z" />
<glyph unicode="&#349;" horiz-adv-x="475" d="M230 -10q-49 0 -84.5 8q-35.5 8 -65.5 22l0 78q61 -50 150 -50q60 0 86.5 23.5q26.5 23.5 26.5 68.5q0 36 -20 55q-20 19 -49.5 30q-29.5 11 -64.5 19q-35 8 -64.5 23q-29.5 15 -49.5 42q-20 27 -20 76q0 69 41.5 107q41.5 38 133.5 38q42 0 77 -8q35 -8 53 -16l0 -73q-26 18 -59 28.5q-33 10.5 -71 10.5q-63 0 -88 -21.5q-25 -21.5 -25 -60.5q0 -35 20 -52.5q20 -17.5 49.5 -27.5q29.5 -10 64.5 -18q35 -8 64.5 -23.5q29.5 -15.5 49.5 -44q20 -28.5 20 -79.5q0 -78 -41.5 -116.5q-41.5 -38.5 -133.5 -38.5zt0 0zM205 745h70l110 -130h-56l-89 90l-91 -90l-54 0z" />
<glyph unicode="&#350;" horiz-adv-x="580" d="M300 -210q-23 0 -39.5 4.5q-16.5 4.5 -30.5 10.5l6 42q15 -7 28 -10q13 -3 31 -3q26 0 38.5 11.5q12.5 11.5 12.5 31.5q0 20 -13.5 31.5q-13.5 11.5 -42.5 11.5q-8 0 -17 -0.5q-9 -0.5 -14 -1.5l14 72q-60 2 -109.5 18q-49.5 16 -78.5 37l0 80q33 -29 83 -52q50 -23 112 -23q85 0 122 33.5q37 33.5 37 96.5q0 37 -15 62q-15 25 -39.5 42q-24.5 17 -56 29q-31.5 12 -64 23.5q-32.5 11.5 -64 25.5q-31.5 14 -56 36q-24.5 22 -39.5 53.5q-15 31.5 -15 78.5q0 86 52 133q52 47 168 47q52 0 94.5 -10.5q42.5 -10.5 70.5 -24.5l0 -80q-27 24 -72 39.5q-45 15.5 -93 15.5q-87 0 -120.5 -29.5q-33.5 -29.5 -33.5 -90.5q0 -49 26 -75.5q26 -26.5 64.5 -43q38.5 -16.5 84 -30q45.5 -13.5 84 -36q38.5 -22.5 64.5 -61q26 -38.5 26 -104.5q0 -84 -46 -133q-46 -49 -146 -56l-8 -36q49 0 72 -21q23 -21 23 -57q0 -39 -25.5 -63t-74.5 -24z" />
</font>
</defs>
</svg>
